<?xml version="1.0" encoding="UTF-8"?> <svg xmlns="http://www.w3.org/2000/svg" width="544" height="412" viewBox="0 0 544 412" fill="none"><path d="M153.335 197.75C126.674 215.808 122.352 247.492 125.112 266.685C127.873 285.877 126.526 307.179 104.976 323.546C83.4267 339.914 81.3685 369.542 98.6777 385.806C117.38 403.409 162.816 427.377 215.907 395.576C245.938 377.073 269.523 349.786 283.451 317.432C294.996 290.521 299.275 268.026 287.824 254.612C276.372 241.199 263.239 249.003 257.345 251.778C251.45 254.553 234.08 258.702 227.933 227.864C220.623 191.064 183.154 177.58 153.335 197.75Z" fill="#F6FBFE"></path><path d="M356.104 108.551L353.077 108.555C352.77 108.526 352.46 108.56 352.166 108.655C351.859 108.778 351.603 109.004 351.445 109.295C351.361 109.446 351.305 109.61 351.276 109.78C351.252 109.958 351.245 110.138 351.253 110.317C351.253 110.5 351.253 110.686 351.253 110.875C351.262 111.068 351.25 111.262 351.217 111.453C351.175 111.652 351.093 111.841 350.977 112.008C350.862 112.175 350.714 112.318 350.542 112.427C350.362 112.542 350.159 112.614 349.947 112.64C349.73 112.659 349.523 112.645 349.306 112.649H346.593H340.444H338.33C338.183 112.654 338.035 112.64 337.892 112.606C337.598 112.532 337.334 112.369 337.137 112.138C336.936 111.907 336.808 111.621 336.769 111.317C336.754 111.166 336.749 111.013 336.753 110.861V110.407C336.778 110.106 336.747 109.803 336.662 109.513C336.559 109.227 336.37 108.98 336.121 108.806C335.865 108.632 335.559 108.547 335.25 108.565H328.268C327.569 108.544 326.875 108.676 326.232 108.952C325.578 109.243 324.998 109.678 324.536 110.224C324.069 110.786 323.741 111.449 323.577 112.16C323.53 112.338 323.516 112.522 323.484 112.704C323.475 112.859 323.468 113.013 323.463 113.169V143.506C323.463 143.912 323.463 144.306 323.463 144.715C323.463 145.941 323.463 147.189 323.463 148.434V187.856C323.449 188.353 323.512 188.849 323.649 189.327C323.95 190.334 324.584 191.21 325.448 191.81C326.319 192.4 327.36 192.687 328.411 192.626H331.562L337.799 192.63L349.994 192.639C351.993 192.639 353.974 192.641 355.937 192.644C356.915 192.637 357.898 192.659 358.862 192.631C359.821 192.575 360.738 192.219 361.484 191.614C361.848 191.311 362.166 190.958 362.43 190.564C362.688 190.17 362.884 189.739 363.01 189.286C363.136 188.833 363.195 188.364 363.186 187.894C363.186 187.423 363.186 186.952 363.186 186.481C363.186 184.6 363.186 182.741 363.186 180.904C363.194 166.208 363.202 152.975 363.207 141.861C363.212 130.747 363.227 121.752 363.234 115.536C363.234 114.758 363.234 114.025 363.234 113.337C363.248 112.694 363.133 112.055 362.895 111.457C362.688 110.947 362.391 110.478 362.018 110.072C361.713 109.732 361.357 109.441 360.964 109.21C360.434 108.885 359.842 108.676 359.226 108.596C359.069 108.572 358.912 108.558 358.754 108.554L358.594 108.541C358.594 108.541 358.382 108.546 357.958 108.548L356.104 108.551Z" fill="#F9FBFC"></path><path d="M279.447 1.10505L276.421 1.1107C276.113 1.08199 275.803 1.11543 275.509 1.20899C275.202 1.33355 274.948 1.56027 274.788 1.85083C274.705 2.00164 274.648 2.16563 274.619 2.33572C274.596 2.51355 274.589 2.69308 274.598 2.87221V3.43066C274.606 3.62367 274.594 3.81704 274.562 4.00745C274.519 4.20664 274.438 4.39543 274.322 4.56279C274.206 4.73016 274.058 4.87277 273.886 4.98224C273.707 5.09632 273.503 5.16876 273.292 5.19429C273.08 5.21267 272.868 5.19994 272.65 5.20348H269.938H263.788C263.236 5.20348 262.674 5.20348 262.104 5.20348H261.674C261.526 5.20831 261.379 5.19357 261.235 5.15964C260.941 5.08782 260.677 4.92477 260.481 4.69382C260.28 4.46242 260.152 4.17658 260.113 3.87245C260.097 3.72127 260.092 3.56915 260.096 3.4172V2.96273C260.122 2.66206 260.091 2.35924 260.005 2.06996C259.903 1.78405 259.714 1.53703 259.465 1.36309C259.209 1.18989 258.903 1.10545 258.594 1.12274H251.612C250.913 1.10147 250.218 1.23344 249.576 1.50939C248.922 1.79937 248.343 2.2328 247.88 2.77751C247.413 3.33953 247.085 4.00278 246.92 4.71431C246.874 4.89174 246.86 5.07766 246.827 5.25861C246.82 5.41271 246.811 5.5675 246.806 5.72301V80.4103C246.793 80.9073 246.856 81.4033 246.992 81.8813C247.294 82.8888 247.928 83.7643 248.791 84.3645C249.662 84.9545 250.704 85.2411 251.754 85.1802H254.905L261.142 85.1852L273.337 85.1922L279.279 85.1972C280.258 85.1915 281.241 85.2134 282.205 85.1852C283.163 85.1276 284.08 84.7719 284.827 84.168C285.191 83.8653 285.51 83.5115 285.773 83.1176C286.031 82.7233 286.227 82.2915 286.353 81.8375C286.479 81.3852 286.538 80.917 286.528 80.4478C286.528 79.9765 286.528 79.5053 286.528 79.034C286.528 77.1524 286.528 75.2931 286.528 73.4562C286.536 58.7612 286.544 45.5279 286.55 34.4139C286.556 23.2999 286.57 14.3058 286.576 8.08818C286.576 7.31158 286.577 6.57854 286.58 5.88911C286.594 5.24623 286.478 4.6072 286.239 4.0103C286.031 3.50002 285.735 3.03083 285.362 2.62483C285.057 2.2858 284.702 1.99525 284.309 1.76316C283.779 1.43886 283.187 1.22981 282.571 1.14962C282.415 1.12471 282.257 1.11006 282.099 1.10579C281.993 1.09942 281.939 1.09448 281.939 1.09448C281.939 1.09448 281.727 1.09943 281.303 1.10013L279.447 1.10505Z" fill="#F9FBFC"></path><path d="M279.063 108.646L276.036 108.651C275.729 108.623 275.42 108.657 275.126 108.75C274.819 108.874 274.564 109.1 274.405 109.391C274.322 109.542 274.264 109.706 274.235 109.876C274.213 110.054 274.205 110.234 274.214 110.414V110.972C274.223 111.165 274.211 111.358 274.178 111.549C274.136 111.748 274.055 111.937 273.939 112.104C273.823 112.272 273.675 112.414 273.503 112.524C273.323 112.637 273.12 112.71 272.908 112.736C272.696 112.754 272.484 112.741 272.267 112.745H269.554H263.405H261.721H261.291C261.143 112.75 260.995 112.735 260.851 112.701C260.558 112.628 260.294 112.465 260.098 112.235C259.897 112.003 259.768 111.717 259.729 111.413C259.714 111.262 259.709 111.11 259.713 110.959V110.504C259.739 110.203 259.708 109.9 259.622 109.611C259.52 109.324 259.331 109.077 259.082 108.904C258.826 108.73 258.52 108.645 258.211 108.663H251.229C250.53 108.642 249.835 108.774 249.193 109.049C248.539 109.339 247.959 109.773 247.497 110.318C247.03 110.88 246.702 111.543 246.537 112.254C246.49 112.432 246.477 112.618 246.444 112.799C246.437 112.953 246.429 113.108 246.424 113.263V187.95C246.41 188.447 246.473 188.943 246.61 189.421C246.911 190.428 247.544 191.303 248.407 191.904C249.279 192.493 250.32 192.78 251.371 192.72H254.522L260.759 192.724L272.954 192.731C274.953 192.731 276.934 192.733 278.896 192.736C279.875 192.73 280.858 192.752 281.821 192.724C282.78 192.668 283.698 192.312 284.444 191.707C284.808 191.405 285.127 191.051 285.39 190.658C285.648 190.263 285.844 189.831 285.971 189.377C286.096 188.925 286.155 188.457 286.145 187.988C286.145 187.516 286.145 187.045 286.145 186.574C286.145 184.692 286.145 182.833 286.145 180.996C286.154 166.302 286.161 153.069 286.167 141.955C286.173 130.841 286.187 121.846 286.193 115.628C286.193 114.852 286.195 114.119 286.198 113.429C286.211 112.786 286.095 112.147 285.856 111.55C285.649 111.04 285.352 110.571 284.98 110.165C284.674 109.825 284.319 109.535 283.926 109.302C283.397 108.978 282.804 108.769 282.188 108.689C282.032 108.664 281.874 108.65 281.716 108.646C281.61 108.639 281.556 108.634 281.556 108.634C281.556 108.634 281.344 108.638 280.92 108.64C280.496 108.642 279.882 108.644 279.063 108.646Z" fill="#F9FBFC"></path><path d="M252.961 145.656H279.226V140.292H252.961V145.656Z" fill="#EBEBEB"></path><path d="M281.643 108.604C281.643 108.604 281.696 108.604 281.802 108.609C281.961 108.611 282.119 108.623 282.275 108.646C282.895 108.721 283.491 108.927 284.025 109.251C284.422 109.482 284.781 109.772 285.089 110.112C285.466 110.52 285.767 110.992 285.978 111.506C286.221 112.107 286.339 112.751 286.327 113.399C286.327 114.089 286.327 114.823 286.327 115.6C286.331 121.82 286.336 130.812 286.343 141.925C286.349 153.038 286.347 166.274 286.349 180.967V187.961C286.358 188.441 286.298 188.921 286.171 189.384C286.04 189.85 285.84 190.293 285.575 190.699C285.304 191.103 284.977 191.466 284.602 191.777C283.836 192.399 282.893 192.764 281.908 192.822C280.93 192.85 279.958 192.829 278.976 192.835H273.034L260.838 192.829H254.601H251.45C250.373 192.89 249.305 192.595 248.411 191.989C247.523 191.372 246.87 190.472 246.561 189.435C246.415 188.923 246.349 188.39 246.366 187.857V186.283C246.366 184.189 246.366 182.109 246.366 180.044C246.366 175.914 246.367 171.848 246.369 167.846C246.369 159.849 246.375 152.134 246.379 144.786C246.382 137.438 246.384 130.455 246.388 123.919C246.391 120.652 246.393 117.5 246.394 114.463C246.394 114.086 246.394 113.709 246.394 113.332C246.394 113.143 246.41 112.953 246.419 112.766C246.452 112.58 246.467 112.391 246.516 112.21C246.683 111.482 247.019 110.804 247.496 110.231C247.969 109.675 248.56 109.233 249.227 108.937C249.881 108.657 250.589 108.523 251.301 108.545L255.369 108.549H257.325H258.284C258.61 108.532 258.933 108.623 259.203 108.807C259.466 108.991 259.666 109.253 259.773 109.556C259.862 109.854 259.894 110.166 259.868 110.475V110.929C259.863 111.077 259.868 111.226 259.883 111.374C259.919 111.663 260.041 111.934 260.231 112.155C260.417 112.373 260.666 112.527 260.944 112.598C261.081 112.631 261.223 112.644 261.364 112.638C261.506 112.638 261.652 112.638 261.794 112.638H263.478L269.631 112.647L272.342 112.652C272.555 112.647 272.774 112.661 272.979 112.643C273.181 112.619 273.376 112.551 273.548 112.442C273.715 112.337 273.858 112.2 273.971 112.038C274.083 111.877 274.162 111.695 274.203 111.502C274.235 111.316 274.247 111.126 274.239 110.937C274.239 110.749 274.239 110.562 274.239 110.378C274.231 110.197 274.239 110.015 274.263 109.835C274.294 109.66 274.353 109.491 274.439 109.335C274.603 109.036 274.867 108.803 275.184 108.677C275.483 108.582 275.798 108.549 276.111 108.579L279.136 108.586L280.997 108.595C281.417 108.595 281.634 108.601 281.634 108.601C281.634 108.601 281.421 108.606 280.997 108.608L279.136 108.613L276.111 108.618C275.804 108.589 275.494 108.623 275.2 108.716C274.893 108.84 274.638 109.067 274.479 109.358C274.396 109.509 274.338 109.673 274.31 109.842C274.287 110.02 274.28 110.2 274.288 110.379C274.288 110.563 274.288 110.749 274.288 110.937C274.297 111.131 274.285 111.324 274.252 111.515C274.21 111.714 274.128 111.903 274.012 112.07C273.897 112.237 273.748 112.38 273.577 112.489C273.397 112.603 273.195 112.676 272.984 112.701C272.767 112.72 272.559 112.707 272.34 112.712H269.638H263.485H261.371C261.223 112.717 261.076 112.703 260.932 112.669C260.638 112.596 260.375 112.433 260.179 112.203C259.977 111.972 259.849 111.686 259.81 111.382C259.795 111.231 259.789 111.078 259.794 110.926V110.472C259.819 110.171 259.788 109.868 259.702 109.578C259.599 109.292 259.41 109.045 259.161 108.871C258.905 108.698 258.599 108.613 258.291 108.631H251.308C250.609 108.61 249.915 108.742 249.272 109.018C248.618 109.308 248.039 109.742 247.575 110.286C247.109 110.848 246.781 111.511 246.616 112.222C246.569 112.401 246.556 112.586 246.524 112.767C246.514 112.953 246.5 113.136 246.499 113.323V114.454C246.499 117.487 246.499 120.64 246.499 123.91C246.499 130.446 246.499 137.429 246.499 144.778V167.838C246.499 171.836 246.499 175.902 246.499 180.036C246.499 182.101 246.499 184.181 246.499 186.275V187.848C246.482 188.369 246.546 188.889 246.688 189.39C246.99 190.397 247.624 191.273 248.487 191.873C249.359 192.463 250.4 192.75 251.451 192.689H254.6C256.693 192.691 258.773 192.693 260.838 192.694C264.967 192.697 269.032 192.699 273.033 192.702L278.975 192.707C279.954 192.701 280.937 192.722 281.9 192.694C282.859 192.637 283.776 192.282 284.522 191.677C284.886 191.374 285.205 191.021 285.469 190.628C285.727 190.233 285.923 189.802 286.049 189.348C286.174 188.895 286.233 188.427 286.224 187.958V186.544C286.224 184.664 286.224 182.805 286.224 180.966C286.232 166.273 286.239 153.038 286.244 141.924C286.249 130.81 286.265 121.816 286.272 115.599C286.272 114.821 286.273 114.088 286.275 113.399C286.289 112.756 286.173 112.117 285.935 111.52C285.727 111.01 285.43 110.54 285.058 110.134C284.753 109.795 284.397 109.504 284.004 109.272C283.474 108.947 282.882 108.738 282.265 108.658C282.109 108.634 281.952 108.62 281.794 108.615C281.696 108.61 281.643 108.604 281.643 108.604Z" fill="#182E35" stroke="#EDF7FC" stroke-width="0.879299" stroke-linejoin="round"></path><path d="M253.016 153.657H279.279V148.293H253.016V153.657Z" fill="#EBEBEB"></path><path d="M253.016 161.441H279.279V156.077H253.016V161.441Z" fill="#EBEBEB"></path><path d="M272.97 172.103H259.787C259.435 172.103 259.086 172.034 258.76 171.898C258.434 171.763 258.139 171.566 257.889 171.316C257.64 171.067 257.443 170.77 257.308 170.445C257.174 170.119 257.105 169.769 257.105 169.417C257.105 169.065 257.175 168.716 257.309 168.39C257.444 168.065 257.642 167.769 257.891 167.52C258.14 167.271 258.435 167.073 258.761 166.939C259.086 166.804 259.435 166.734 259.787 166.734H272.97C273.681 166.735 274.363 167.018 274.865 167.521C275.368 168.024 275.651 168.706 275.652 169.417C275.652 170.129 275.37 170.811 274.867 171.315C274.364 171.819 273.681 172.102 272.97 172.103Z" fill="#188EF8"></path><path d="M264.721 196.08C264.74 196.169 264.748 196.26 264.745 196.351C264.752 196.559 264.76 196.821 264.769 197.149C264.779 197.885 264.796 198.911 264.814 200.215C264.826 201.558 264.84 203.184 264.856 205.067C264.871 206.006 264.85 207.037 264.895 208.082C264.993 209.183 265.475 210.214 266.256 210.995C267.118 211.851 268.279 212.336 269.493 212.349L273.541 212.339L282.479 212.316L302.956 212.297L323.439 212.316L332.378 212.339L336.425 212.349C337.639 212.336 338.801 211.85 339.662 210.994C340.443 210.213 340.925 209.182 341.022 208.082C341.067 207.035 341.046 206.005 341.061 205.065C341.077 203.183 341.09 201.557 341.103 200.214C341.121 198.911 341.138 197.882 341.148 197.149C341.157 196.822 341.165 196.559 341.172 196.352C341.169 196.261 341.178 196.17 341.197 196.081C341.216 196.17 341.224 196.261 341.221 196.352C341.227 196.559 341.236 196.822 341.245 197.149C341.256 197.884 341.271 198.912 341.291 200.214C341.302 201.557 341.316 203.183 341.331 205.065C341.331 206.016 341.365 207.009 341.331 208.105C341.239 209.283 340.735 210.391 339.907 211.234C338.987 212.163 337.74 212.695 336.433 212.719L332.38 212.736L323.442 212.758C317.143 212.765 310.224 212.771 302.959 212.777C295.698 212.771 288.78 212.765 282.481 212.758L273.544 212.736C272.144 212.73 270.793 212.725 269.491 212.719C268.183 212.696 266.937 212.163 266.016 211.234C265.188 210.392 264.683 209.284 264.59 208.106C264.555 207.009 264.59 206.016 264.59 205.066C264.606 203.184 264.62 201.557 264.631 200.214C264.651 198.91 264.666 197.882 264.677 197.149C264.686 196.821 264.694 196.558 264.701 196.351C264.697 196.26 264.703 196.169 264.721 196.08Z" fill="#EDF7FC" stroke="#C7D1EA" stroke-width="0.879299" stroke-linejoin="round"></path><path d="M263.621 196.08C263.621 195.787 263.738 195.507 263.945 195.3C264.152 195.093 264.432 194.976 264.725 194.976C265.018 194.976 265.299 195.092 265.506 195.299C265.713 195.506 265.829 195.787 265.829 196.08C265.829 196.373 265.713 196.653 265.506 196.86C265.299 197.067 265.018 197.183 264.725 197.183C264.433 197.183 264.152 197.067 263.945 196.86C263.738 196.653 263.621 196.373 263.621 196.08Z" fill="#EDF7FC"></path><path d="M358.632 108.604C358.632 108.604 358.686 108.604 358.792 108.609C358.95 108.611 359.108 108.623 359.265 108.646C359.885 108.721 360.482 108.927 361.016 109.251C361.412 109.482 361.771 109.772 362.079 110.113C362.457 110.52 362.757 110.992 362.968 111.506C363.21 112.107 363.329 112.751 363.318 113.399C363.318 114.089 363.318 114.823 363.318 115.6C363.322 121.82 363.327 130.812 363.334 141.925C363.341 153.038 363.339 166.274 363.34 180.967V187.961C363.35 188.441 363.29 188.921 363.161 189.384C363.031 189.85 362.831 190.294 362.566 190.699C362.295 191.103 361.968 191.466 361.595 191.777C360.828 192.398 359.885 192.764 358.9 192.822C357.921 192.85 356.95 192.829 355.967 192.835H350.025L337.83 192.829H331.592H328.443C327.365 192.89 326.297 192.594 325.403 191.989C324.515 191.372 323.863 190.472 323.553 189.435C323.407 188.923 323.341 188.39 323.358 187.857V186.284C323.358 184.189 323.358 182.109 323.358 180.044C323.358 175.914 323.359 171.848 323.362 167.846C323.362 159.849 323.367 152.134 323.37 144.786C323.373 137.438 323.376 130.455 323.38 123.919C323.38 120.652 323.382 117.5 323.386 114.463C323.386 114.086 323.386 113.709 323.386 113.332C323.386 113.143 323.402 112.953 323.412 112.766C323.444 112.58 323.459 112.391 323.507 112.21C323.675 111.482 324.011 110.804 324.488 110.231C324.961 109.675 325.552 109.233 326.219 108.937C326.874 108.657 327.582 108.523 328.294 108.545L332.361 108.549H334.317H335.277C335.603 108.532 335.926 108.623 336.195 108.807C336.459 108.991 336.659 109.253 336.765 109.556C336.854 109.854 336.886 110.166 336.86 110.475V110.929C336.855 111.077 336.86 111.226 336.875 111.374C336.911 111.663 337.032 111.934 337.223 112.155C337.409 112.373 337.658 112.528 337.936 112.598C338.074 112.631 338.215 112.644 338.356 112.638C338.498 112.638 338.643 112.638 338.786 112.638H340.47L346.62 112.647L349.333 112.652C349.545 112.647 349.764 112.661 349.969 112.643C350.171 112.619 350.366 112.551 350.539 112.442C350.705 112.337 350.849 112.2 350.961 112.038C351.074 111.877 351.153 111.695 351.194 111.502C351.226 111.316 351.239 111.126 351.231 110.937C351.231 110.749 351.231 110.562 351.231 110.378C351.223 110.197 351.231 110.015 351.255 109.835C351.285 109.659 351.345 109.49 351.431 109.335C351.595 109.036 351.858 108.803 352.176 108.677C352.475 108.582 352.79 108.549 353.103 108.579L356.129 108.586L357.99 108.595C358.409 108.595 358.626 108.601 358.626 108.601C358.626 108.601 358.414 108.606 357.99 108.608L356.129 108.613L353.103 108.618C352.796 108.589 352.486 108.623 352.192 108.716C351.884 108.84 351.629 109.067 351.47 109.358C351.387 109.509 351.33 109.673 351.301 109.842C351.278 110.02 351.27 110.2 351.278 110.379V110.937C351.287 111.131 351.276 111.324 351.243 111.515C351.2 111.714 351.119 111.903 351.003 112.07C350.887 112.237 350.739 112.38 350.567 112.489C350.388 112.604 350.185 112.676 349.973 112.701C349.761 112.72 349.549 112.707 349.332 112.712H346.619H340.469H338.356C338.208 112.718 338.06 112.703 337.916 112.669C337.622 112.596 337.359 112.433 337.162 112.203C336.961 111.972 336.833 111.686 336.793 111.382C336.779 111.231 336.773 111.078 336.778 110.926V110.472C336.803 110.171 336.772 109.868 336.687 109.578C336.584 109.292 336.396 109.045 336.147 108.871C335.891 108.698 335.585 108.614 335.276 108.631H328.3C327.601 108.61 326.906 108.742 326.264 109.018C325.611 109.308 325.031 109.742 324.568 110.286C324.101 110.848 323.772 111.511 323.608 112.222C323.561 112.401 323.547 112.586 323.514 112.767C323.505 112.953 323.492 113.136 323.49 113.323C323.49 113.7 323.49 114.077 323.49 114.454C323.49 117.487 323.49 120.64 323.49 123.91C323.49 130.446 323.49 137.429 323.49 144.778V167.838C323.49 171.836 323.49 175.902 323.49 180.036C323.49 182.101 323.49 184.181 323.49 186.275C323.49 186.799 323.49 187.323 323.49 187.849C323.473 188.369 323.536 188.889 323.679 189.39C323.98 190.398 324.614 191.273 325.477 191.873C326.349 192.463 327.39 192.749 328.441 192.689H331.594C333.688 192.691 335.767 192.693 337.831 192.694C341.961 192.697 346.026 192.699 350.027 192.702L355.969 192.707C356.948 192.701 357.932 192.722 358.894 192.694C359.853 192.638 360.77 192.282 361.517 191.677C361.881 191.374 362.2 191.021 362.463 190.628C362.721 190.234 362.917 189.802 363.044 189.348C363.169 188.895 363.228 188.427 363.218 187.958C363.218 187.484 363.218 187.013 363.218 186.544C363.218 184.664 363.218 182.805 363.218 180.966C363.227 166.273 363.234 153.038 363.239 141.924C363.244 130.81 363.26 121.816 363.266 115.599C363.266 114.821 363.268 114.088 363.27 113.399C363.284 112.756 363.168 112.117 362.929 111.52C362.722 111.01 362.425 110.54 362.053 110.134C361.747 109.795 361.392 109.504 360.998 109.272C360.468 108.947 359.876 108.738 359.26 108.658C359.104 108.634 358.947 108.62 358.789 108.615C358.686 108.61 358.632 108.604 358.632 108.604Z" fill="#182E35" stroke="#EDF7FC" stroke-width="0.879299" stroke-linejoin="round"></path><path d="M351.683 136.319C351.683 137.342 351.482 138.355 351.09 139.3C350.699 140.245 350.125 141.104 349.401 141.828C348.678 142.551 347.819 143.125 346.874 143.517C345.929 143.908 344.916 144.11 343.893 144.11C342.869 144.11 341.856 143.908 340.911 143.517C339.966 143.125 339.107 142.552 338.383 141.828C337.66 141.105 337.086 140.246 336.694 139.3C336.303 138.355 336.101 137.342 336.102 136.319C336.102 135.296 336.303 134.283 336.695 133.337C337.086 132.392 337.66 131.533 338.384 130.81C339.107 130.087 339.966 129.513 340.911 129.121C341.856 128.73 342.87 128.528 343.893 128.528C344.916 128.528 345.929 128.73 346.874 129.121C347.819 129.513 348.678 130.087 349.401 130.81C350.125 131.533 350.699 132.392 351.09 133.337C351.482 134.283 351.683 135.296 351.683 136.319Z" fill="#188EF8"></path><path d="M346.563 139.461H341.219V138.803C341.219 138.095 341.501 137.415 342.002 136.914C342.503 136.413 343.183 136.131 343.891 136.131C344.242 136.131 344.59 136.2 344.914 136.334C345.238 136.469 345.533 136.665 345.781 136.914C346.029 137.162 346.226 137.456 346.36 137.781C346.494 138.105 346.563 138.452 346.563 138.803V139.461Z" fill="white"></path><path d="M345.463 134.747C345.463 135.164 345.297 135.563 345.003 135.858C344.708 136.153 344.308 136.318 343.892 136.318C343.475 136.318 343.075 136.153 342.781 135.858C342.486 135.564 342.32 135.164 342.32 134.747C342.32 134.33 342.486 133.931 342.781 133.636C343.075 133.341 343.475 133.176 343.892 133.176C344.308 133.176 344.708 133.342 345.003 133.636C345.297 133.931 345.463 134.33 345.463 134.747Z" fill="white"></path><path d="M330.004 158.399H356.269V153.034H330.004V158.399Z" fill="#EBEBEB"></path><path d="M330.004 166.184H356.269V160.819H330.004V166.184Z" fill="#EBEBEB"></path><path d="M349.955 176.846H336.772C336.061 176.845 335.378 176.562 334.875 176.058C334.372 175.555 334.09 174.872 334.09 174.16C334.09 173.449 334.373 172.767 334.876 172.264C335.379 171.762 336.061 171.479 336.772 171.48H349.955C350.666 171.48 351.348 171.762 351.851 172.265C352.354 172.767 352.636 173.449 352.637 174.16C352.637 174.513 352.568 174.862 352.434 175.187C352.299 175.513 352.102 175.809 351.853 176.059C351.604 176.308 351.308 176.506 350.982 176.641C350.657 176.776 350.308 176.846 349.955 176.846Z" fill="#188EF8"></path><path d="M333.631 156.897H332.472C332.418 156.897 332.365 156.875 332.327 156.837C332.288 156.799 332.266 156.746 332.266 156.692C332.266 156.486 332.347 156.289 332.492 156.144C332.637 155.998 332.833 155.916 333.039 155.914H333.064C333.27 155.916 333.467 155.998 333.611 156.144C333.756 156.289 333.838 156.486 333.838 156.692C333.838 156.719 333.832 156.746 333.822 156.771C333.811 156.796 333.796 156.818 333.777 156.837C333.758 156.856 333.735 156.871 333.71 156.882C333.685 156.892 333.658 156.897 333.631 156.897Z" fill="#E0E1E1"></path><path d="M333.514 155.511C333.514 155.572 333.502 155.632 333.479 155.688C333.456 155.745 333.421 155.796 333.379 155.839C333.336 155.882 333.285 155.916 333.228 155.939C333.172 155.962 333.112 155.974 333.051 155.974C332.991 155.974 332.931 155.962 332.875 155.939C332.818 155.916 332.767 155.881 332.725 155.839C332.682 155.796 332.648 155.745 332.625 155.688C332.601 155.632 332.59 155.572 332.59 155.511C332.59 155.451 332.602 155.391 332.625 155.335C332.648 155.279 332.682 155.228 332.725 155.185C332.768 155.142 332.819 155.108 332.875 155.084C332.931 155.061 332.991 155.049 333.051 155.049C333.174 155.049 333.292 155.098 333.378 155.185C333.465 155.271 333.514 155.389 333.514 155.511Z" fill="#E0E1E1"></path><path d="M332.355 164.567H333.74V163.588H332.355V164.567Z" fill="#E0E1E1"></path><path d="M333.897 163.793H333.433V163.492C333.432 163.388 333.391 163.289 333.318 163.216C333.244 163.142 333.145 163.101 333.041 163.101C332.989 163.101 332.938 163.111 332.891 163.13C332.843 163.15 332.8 163.179 332.763 163.215C332.727 163.251 332.698 163.295 332.678 163.342C332.658 163.39 332.648 163.441 332.648 163.492V163.793H332.184V163.492C332.184 163.265 332.274 163.047 332.435 162.887C332.596 162.726 332.814 162.636 333.041 162.636C333.268 162.637 333.485 162.727 333.646 162.887C333.806 163.048 333.897 163.265 333.897 163.492V163.793Z" fill="#E0E1E1"></path><path d="M281.973 1.06304L282.132 1.068C282.291 1.06973 282.449 1.08223 282.606 1.10545C283.226 1.17993 283.822 1.38602 284.355 1.70985C284.753 1.94109 285.112 2.23192 285.421 2.5722C285.797 2.9801 286.098 3.45191 286.309 3.96544C286.552 4.56682 286.671 5.21126 286.658 5.85983C286.658 6.54926 286.658 7.28229 286.658 8.0589C286.661 14.2793 286.667 23.2706 286.674 34.3839C286.681 45.4973 286.678 58.7326 286.68 73.4262C286.68 75.264 286.68 77.1233 286.68 79.004C286.68 79.4748 286.68 79.9456 286.68 80.4178C286.69 80.8982 286.63 81.3775 286.502 81.8407C286.372 82.3072 286.171 82.7509 285.906 83.1562C285.635 83.5607 285.308 83.9242 284.934 84.2355C284.167 84.8566 283.225 85.2221 282.24 85.281C281.261 85.3086 280.29 85.2874 279.307 85.2937H273.365L261.17 85.2874H254.933H251.782C250.705 85.3478 249.637 85.0528 248.743 84.4476C247.855 83.8301 247.203 82.9294 246.893 81.893C246.747 81.3802 246.681 80.8476 246.698 80.3146C246.698 79.7891 246.698 79.2649 246.698 78.7418C246.698 76.6471 246.698 74.5673 246.698 72.5023C246.698 68.3723 246.699 64.3062 246.702 60.304C246.702 52.3065 246.708 44.5925 246.711 37.2439C246.714 29.8953 246.717 22.9122 246.721 16.3773C246.721 13.1102 246.723 9.95802 246.726 6.92086C246.726 6.54128 246.726 6.16449 246.726 5.78985C246.726 5.60183 246.742 5.4124 246.752 5.22437C246.786 5.03705 246.799 4.84902 246.848 4.66665C247.016 3.93934 247.352 3.26149 247.829 2.68744C248.301 2.1315 248.893 1.68931 249.559 1.39387C250.214 1.11432 250.922 0.980675 251.633 1.00225L255.701 1.00721H257.657H258.616C258.942 0.989983 259.265 1.0801 259.535 1.26379C259.799 1.44769 259.998 1.70973 260.106 2.01306C260.195 2.31196 260.227 2.62486 260.201 2.93556C260.201 3.08683 260.201 3.23809 260.201 3.38865C260.196 3.53702 260.201 3.68548 260.215 3.83325C260.252 4.12229 260.373 4.39408 260.564 4.61436C260.75 4.83254 260.999 4.9874 261.277 5.05753C261.415 5.09027 261.556 5.10432 261.697 5.09925H262.127H263.812L269.962 5.10775C270.907 5.10775 271.811 5.10937 272.675 5.11267C272.887 5.10914 273.106 5.12189 273.311 5.10421C273.514 5.0808 273.709 5.01221 273.882 4.90347C274.048 4.79826 274.191 4.66088 274.304 4.49943C274.416 4.33798 274.495 4.1557 274.536 3.96333C274.569 3.77674 274.581 3.58714 274.573 3.39784C274.573 3.20911 274.573 3.02247 274.573 2.83939C274.565 2.65761 274.573 2.47553 274.597 2.29514C274.627 2.12009 274.687 1.95139 274.773 1.79609C274.938 1.49638 275.201 1.26339 275.519 1.13729C275.818 1.04235 276.132 1.0089 276.444 1.03901L279.471 1.04609L281.332 1.05459C281.752 1.05459 281.968 1.06093 281.968 1.06093C281.968 1.06093 281.756 1.0659 281.332 1.06731L279.471 1.07297L276.444 1.07719C276.137 1.04852 275.828 1.08191 275.534 1.17543C275.226 1.29929 274.971 1.52619 274.813 1.81728C274.729 1.96837 274.672 2.13261 274.644 2.3029C274.62 2.48048 274.613 2.65976 274.621 2.8387C274.621 3.02178 274.621 3.20767 274.621 3.39711C274.629 3.59035 274.617 3.78399 274.585 3.97463C274.542 4.17391 274.461 4.3628 274.345 4.53019C274.229 4.69758 274.081 4.84011 273.909 4.94942C273.73 5.0638 273.527 5.13628 273.316 5.16147C273.099 5.17984 272.892 5.1671 272.674 5.17135H269.961H263.811H261.696C261.549 5.17692 261.402 5.16266 261.258 5.12894C260.964 5.05604 260.701 4.89318 260.504 4.66311C260.303 4.43131 260.175 4.14536 260.135 3.84106C260.12 3.68961 260.115 3.53727 260.12 3.38512C260.12 3.23526 260.12 3.08329 260.12 2.93202C260.146 2.63065 260.115 2.32713 260.029 2.03714C259.927 1.75109 259.738 1.504 259.489 1.33027C259.232 1.15663 258.926 1.07216 258.617 1.08992H251.635C250.936 1.06895 250.242 1.20115 249.6 1.47726C248.946 1.76705 248.366 2.20025 247.903 2.74469C247.437 3.30638 247.108 3.96977 246.945 4.68149C246.897 4.85962 246.883 5.04411 246.851 5.22648C246.841 5.41027 246.828 5.59408 246.827 5.7814V6.91236C246.827 9.94528 246.827 13.0974 246.827 16.3688C246.827 22.9037 246.827 29.8862 246.827 37.2354C246.827 44.5847 246.827 52.298 246.827 60.2955C246.827 64.2949 246.827 68.361 246.827 72.4938C246.827 74.5593 246.827 76.6391 246.827 78.7333V80.3061C246.809 80.8265 246.873 81.3465 247.016 81.8471C247.316 82.8551 247.95 83.7313 248.814 84.3317C249.685 84.921 250.727 85.2072 251.778 85.146H254.928L261.165 85.1502L273.36 85.1587L279.302 85.1623C280.282 85.1566 281.264 85.1785 282.227 85.1502C283.186 85.094 284.103 84.7382 284.85 84.1331C285.214 83.831 285.533 83.4773 285.796 83.0833C286.054 82.6893 286.25 82.2577 286.376 81.8039C286.502 81.3518 286.56 80.884 286.551 80.415C286.551 79.9414 286.551 79.4706 286.551 79.0012C286.551 77.1191 286.551 75.2598 286.551 73.4234C286.559 58.7298 286.568 45.4951 286.573 34.3811C286.578 23.2671 286.593 14.2729 286.599 8.05606C286.599 7.27898 286.6 6.54598 286.603 5.85703C286.616 5.21399 286.501 4.57477 286.262 3.97748C286.055 3.46735 285.758 2.99819 285.386 2.59201C285.08 2.25302 284.725 1.96229 284.332 1.72965C283.802 1.40531 283.21 1.19623 282.593 1.11607C282.437 1.09174 282.28 1.07758 282.122 1.07366C282.026 1.06871 281.973 1.06304 281.973 1.06304Z" fill="#182E35" stroke="#EDF7FC" stroke-width="0.879299" stroke-linejoin="round"></path><path d="M254.328 47.33H280.592V41.965H254.328V47.33Z" fill="#EBEBEB"></path><path d="M254.328 55.7801H280.592V50.4136H254.328V55.7801Z" fill="#EBEBEB"></path><path d="M254.328 64.2302H280.592V58.8658H254.328V64.2302Z" fill="#EBEBEB"></path><path d="M274.083 75.0488H260.901C260.189 75.0488 259.507 74.7664 259.003 74.2636C258.499 73.7608 258.216 73.0786 258.215 72.367C258.216 71.6552 258.499 70.9729 259.003 70.4699C259.506 69.9669 260.189 69.6844 260.901 69.6844H274.083C274.435 69.6844 274.784 69.7538 275.11 69.8886C275.435 70.0235 275.731 70.2211 275.98 70.4702C276.229 70.7193 276.426 71.015 276.561 71.3405C276.696 71.6659 276.765 72.0147 276.765 72.367C276.765 72.7192 276.696 73.0679 276.561 73.3933C276.426 73.7187 276.229 74.0143 275.98 74.2633C275.731 74.5124 275.435 74.7099 275.11 74.8447C274.784 74.9795 274.435 75.0488 274.083 75.0488Z" fill="#188EF8"></path><path d="M254.328 38.8794H280.592V33.515H254.328V38.8794Z" fill="#EBEBEB"></path><path d="M254.328 30.4329H280.592V25.0685H254.328V30.4329Z" fill="#EBEBEB"></path><path d="M497.34 195.03C497.34 194.885 497.368 194.742 497.424 194.608C497.479 194.474 497.56 194.352 497.663 194.249C497.766 194.147 497.887 194.065 498.021 194.01C498.155 193.954 498.299 193.926 498.444 193.926C498.737 193.926 499.018 194.042 499.225 194.249C499.432 194.456 499.548 194.737 499.548 195.03C499.548 195.323 499.432 195.604 499.224 195.811C499.017 196.018 498.737 196.134 498.444 196.134C498.151 196.134 497.87 196.018 497.663 195.811C497.456 195.604 497.34 195.323 497.34 195.03Z" fill="#C6D1EA"></path><path d="M420.863 195.03C420.863 194.885 420.892 194.741 420.948 194.607C421.003 194.473 421.085 194.352 421.187 194.249C421.29 194.147 421.412 194.065 421.546 194.01C421.68 193.954 421.824 193.926 421.969 193.926C422.114 193.926 422.257 193.955 422.391 194.01C422.525 194.066 422.647 194.147 422.749 194.249C422.852 194.352 422.933 194.474 422.988 194.608C423.044 194.742 423.072 194.885 423.072 195.03C423.072 195.323 422.956 195.604 422.749 195.811C422.542 196.018 422.262 196.134 421.969 196.134C421.676 196.134 421.395 196.018 421.188 195.811C420.98 195.604 420.864 195.323 420.863 195.03Z" fill="#C6D1EA"></path><path d="M415.371 195.03C415.371 194.885 415.399 194.742 415.455 194.608C415.51 194.474 415.592 194.352 415.694 194.249C415.797 194.147 415.919 194.065 416.053 194.01C416.187 193.954 416.33 193.926 416.475 193.926C416.768 193.926 417.049 194.043 417.256 194.25C417.463 194.457 417.579 194.737 417.579 195.03C417.579 195.323 417.463 195.603 417.256 195.81C417.049 196.017 416.768 196.134 416.475 196.134C416.182 196.134 415.902 196.018 415.695 195.811C415.488 195.604 415.371 195.323 415.371 195.03Z" fill="#EDF7FC"></path><path d="M415.371 226.457C415.371 226.312 415.399 226.169 415.455 226.035C415.51 225.901 415.592 225.779 415.694 225.676C415.797 225.573 415.918 225.492 416.052 225.436C416.186 225.381 416.33 225.352 416.475 225.352C416.768 225.352 417.049 225.469 417.256 225.676C417.463 225.884 417.579 226.164 417.579 226.457C417.579 226.75 417.463 227.031 417.256 227.238C417.049 227.445 416.768 227.561 416.475 227.561C416.33 227.561 416.187 227.532 416.053 227.477C415.919 227.422 415.797 227.34 415.695 227.238C415.592 227.135 415.511 227.014 415.455 226.88C415.4 226.746 415.371 226.602 415.371 226.457Z" fill="#EDF7FC"></path><path d="M421.967 195.031C421.985 195.12 421.993 195.211 421.991 195.302C421.997 195.509 422.005 195.772 422.015 196.099C422.025 196.835 422.041 197.862 422.059 199.165C422.071 200.508 422.086 202.134 422.102 204.017C422.117 204.957 422.095 205.986 422.14 207.033C422.238 208.133 422.72 209.163 423.501 209.944C424.363 210.8 425.525 211.286 426.74 211.298L430.786 211.288L439.724 211.265L460.202 211.247L480.686 211.265L489.624 211.288L493.671 211.298C494.886 211.285 496.047 210.799 496.909 209.943C497.689 209.162 498.171 208.131 498.269 207.031C498.315 205.984 498.292 204.955 498.307 204.014C498.324 202.133 498.336 200.507 498.348 199.164C498.368 197.86 498.382 196.831 498.394 196.098C498.404 195.771 498.411 195.508 498.418 195.301C498.416 195.21 498.424 195.119 498.443 195.03C498.461 195.119 498.47 195.21 498.468 195.301C498.474 195.508 498.481 195.771 498.491 196.098C498.503 196.834 498.518 197.86 498.537 199.164C498.549 200.507 498.563 202.133 498.578 204.014C498.578 204.966 498.611 205.96 498.578 207.054C498.487 208.232 497.982 209.34 497.154 210.183C496.233 211.111 494.987 211.644 493.68 211.668L489.626 211.685L480.689 211.707C474.389 211.713 467.47 211.72 460.205 211.726C452.943 211.72 446.025 211.713 439.727 211.707L430.789 211.685L426.737 211.668C425.429 211.645 424.182 211.112 423.262 210.183C422.434 209.34 421.929 208.232 421.836 207.054C421.801 205.959 421.836 204.964 421.836 204.014C421.852 202.132 421.866 200.506 421.877 199.163C421.897 197.859 421.912 196.831 421.923 196.097C421.933 195.77 421.941 195.507 421.947 195.299C421.941 195.209 421.948 195.119 421.967 195.031Z" fill="#D0D8EC" stroke="#C7D1EA" stroke-width="0.879299" stroke-linejoin="round"></path><path d="M420.697 105.521C420.697 105.814 420.58 106.094 420.373 106.301C420.166 106.509 419.885 106.625 419.592 106.625C419.447 106.625 419.304 106.596 419.17 106.541C419.036 106.486 418.914 106.404 418.811 106.302C418.709 106.199 418.628 106.077 418.572 105.943C418.517 105.809 418.488 105.666 418.488 105.521C418.488 105.228 418.605 104.947 418.812 104.74C419.019 104.533 419.3 104.417 419.592 104.417C419.885 104.417 420.166 104.533 420.373 104.74C420.58 104.947 420.696 105.228 420.697 105.521Z" fill="#D0D8EC"></path><path d="M497.178 105.521C497.178 105.666 497.149 105.809 497.093 105.943C497.038 106.078 496.956 106.199 496.854 106.302C496.751 106.404 496.629 106.486 496.495 106.541C496.361 106.596 496.217 106.625 496.072 106.625C495.927 106.625 495.784 106.596 495.65 106.541C495.516 106.485 495.394 106.404 495.292 106.301C495.189 106.199 495.108 106.077 495.053 105.943C494.997 105.809 494.969 105.666 494.969 105.521C494.969 105.228 495.085 104.947 495.292 104.74C495.499 104.533 495.779 104.417 496.072 104.417C496.365 104.417 496.646 104.533 496.853 104.74C497.061 104.947 497.177 105.228 497.178 105.521Z" fill="#C6D1EA"></path><path d="M496.063 105.521C496.045 105.432 496.037 105.341 496.039 105.25C496.033 105.043 496.025 104.781 496.015 104.453C496.005 103.717 495.989 102.69 495.97 101.387C495.958 100.044 495.944 98.4181 495.928 96.535C495.913 95.5949 495.934 94.5664 495.89 93.5195C495.792 92.4193 495.31 91.3887 494.528 90.6079C493.666 89.7523 492.504 89.2666 491.289 89.2543C489.992 89.2566 488.643 89.2599 487.243 89.2642L478.306 89.2861L457.827 89.3052L437.344 89.2861L428.406 89.2642C427.008 89.2604 425.659 89.2571 424.359 89.2543C423.144 89.2668 421.983 89.753 421.121 90.6093C420.341 91.3904 419.859 92.421 419.761 93.5209C419.715 94.5678 419.738 95.5977 419.723 96.5378C419.706 98.4195 419.693 100.045 419.682 101.388C419.661 102.692 419.647 103.721 419.635 104.454C419.626 104.781 419.618 105.044 419.612 105.251C419.615 105.342 419.606 105.433 419.587 105.522C419.569 105.433 419.561 105.342 419.563 105.251C419.557 105.044 419.548 104.781 419.539 104.454C419.528 103.718 419.512 102.692 419.493 101.388C419.481 100.045 419.467 98.4195 419.452 96.5378C419.452 95.5864 419.419 94.5925 419.452 93.4983C419.545 92.3201 420.049 91.2121 420.877 90.369C421.797 89.4403 423.044 88.9076 424.351 88.8846L428.405 88.8669L437.342 88.845C443.642 88.8393 450.561 88.8323 457.826 88.8259C465.088 88.8316 472.006 88.8386 478.304 88.845L487.242 88.8669L491.294 88.8846C492.602 88.9071 493.849 89.4398 494.769 90.369C495.598 91.2115 496.103 92.3198 496.195 93.4983C496.23 94.5932 496.195 95.5878 496.195 96.5378C496.179 98.4209 496.165 100.047 496.154 101.39C496.134 102.694 496.119 103.722 496.108 104.456C496.098 104.783 496.09 105.046 496.084 105.253C496.089 105.343 496.082 105.433 496.063 105.521Z" fill="#D0D8EC" stroke="#C7D1EA" stroke-width="0.879299" stroke-linejoin="round"></path><path d="M416.477 227.077C416.344 227.077 416.477 219.902 416.477 211.055C416.477 202.208 416.344 195.031 416.477 195.031C416.611 195.031 416.477 202.203 416.477 211.055C416.477 219.906 416.607 227.077 416.477 227.077Z" fill="#D0D8EC"></path><path d="M416.477 211.055C416.477 219.902 416.344 227.077 416.477 227.077C416.607 227.077 416.477 219.906 416.477 211.055ZM416.477 211.055C416.477 202.208 416.344 195.031 416.477 195.031C416.611 195.031 416.477 202.203 416.477 211.055Z" stroke="#C7D1EA" stroke-width="0.879299" stroke-linejoin="round"></path><path d="M508.039 108.731C507.206 108.731 506.178 108.731 504.961 108.736C504.897 108.736 504.833 108.736 504.766 108.736C504.518 108.716 504.269 108.75 504.035 108.834C503.725 108.957 503.466 109.184 503.303 109.476C503.218 109.627 503.16 109.791 503.131 109.961C503.108 110.139 503.1 110.318 503.108 110.497C503.108 110.681 503.108 110.866 503.108 111.056C503.117 111.249 503.104 111.442 503.071 111.632C503.027 111.833 502.944 112.022 502.826 112.19C502.708 112.357 502.558 112.499 502.384 112.607C502.201 112.722 501.995 112.794 501.78 112.819C501.639 112.832 501.498 112.829 501.356 112.828C501.28 112.828 501.204 112.828 501.126 112.828H498.369C496.446 112.828 494.362 112.828 492.115 112.828H489.966C489.816 112.833 489.665 112.819 489.519 112.785C489.221 112.712 488.953 112.55 488.752 112.319C488.548 112.088 488.418 111.802 488.378 111.497C488.362 111.346 488.357 111.194 488.362 111.042C488.362 110.892 488.362 110.74 488.362 110.588C488.388 110.287 488.357 109.984 488.269 109.695C488.165 109.408 487.973 109.16 487.72 108.988C487.459 108.814 487.148 108.73 486.835 108.748H479.74C479.03 108.727 478.324 108.859 477.669 109.135C477.008 109.423 476.42 109.857 475.949 110.404C475.475 110.963 475.141 111.627 474.973 112.34C474.925 112.517 474.912 112.702 474.879 112.884C474.871 113.038 474.862 113.192 474.857 113.349V188.037C474.843 188.534 474.907 189.03 475.047 189.507C475.356 190.519 476 191.395 476.874 191.991C477.764 192.581 478.821 192.867 479.887 192.806H483.09L489.432 192.809L501.827 192.818L507.868 192.822C508.22 192.822 508.572 192.822 508.923 192.822C509.567 192.822 510.208 192.828 510.842 192.809C511.814 192.755 512.745 192.4 513.507 191.794C513.878 191.492 514.202 191.138 514.47 190.743C514.733 190.35 514.932 189.918 515.06 189.463C515.187 189.011 515.247 188.543 515.239 188.073V186.66C515.239 184.779 515.239 182.92 515.239 181.083C515.247 166.388 515.254 153.155 515.26 142.04C515.267 130.924 515.281 121.931 515.287 115.715C515.287 114.938 515.288 114.205 515.29 113.515C515.304 112.872 515.187 112.233 514.945 111.637C514.733 111.125 514.431 110.656 514.053 110.251C513.743 109.911 513.381 109.62 512.982 109.389C512.442 109.064 511.84 108.855 511.215 108.776C511.056 108.751 510.895 108.737 510.734 108.732C510.628 108.726 510.572 108.72 510.572 108.72C510.572 108.72 510.355 108.725 509.928 108.726L508.039 108.731Z" fill="#F9FBFC"></path><path d="M485.051 142.422L506.339 142.54L506.427 126.54L485.14 126.421L485.051 142.422Z" fill="#188EF8"></path><path d="M506.339 142.54L485.051 142.422L492.544 132.516L497.115 138.765L500.258 135.456L506.339 142.54Z" fill="#20BAFC"></path><path d="M497.434 132.999H497.424C496.981 132.997 496.558 132.819 496.245 132.505C495.933 132.192 495.758 131.767 495.758 131.324V131.314C495.76 130.871 495.937 130.447 496.251 130.135C496.565 129.822 496.99 129.647 497.433 129.647H497.443C497.885 129.649 498.309 129.826 498.621 130.14C498.934 130.453 499.109 130.878 499.109 131.32V131.332C499.107 131.775 498.93 132.199 498.616 132.511C498.302 132.824 497.877 132.999 497.434 132.999Z" fill="#20BAFC"></path><path d="M485.055 163.663L506.343 163.781L506.431 147.78L485.144 147.661L485.055 163.663Z" fill="#188EF8"></path><path d="M505.332 163.781L484.043 163.663L491.536 153.757L496.107 160.006L499.25 156.697L505.332 163.781Z" fill="#EDF7FC"></path><path d="M496.426 154.24H496.416C495.973 154.237 495.55 154.06 495.238 153.746C494.926 153.432 494.75 153.008 494.75 152.565V152.555C494.752 152.112 494.929 151.688 495.243 151.375C495.557 151.063 495.982 150.888 496.425 150.888H496.435C496.878 150.89 497.301 151.067 497.613 151.381C497.926 151.694 498.101 152.119 498.101 152.561V152.572C498.099 153.015 497.922 153.439 497.608 153.752C497.294 154.064 496.869 154.24 496.426 154.24Z" fill="#20BAFC"></path><path d="M510.626 108.016C510.626 108.016 510.679 108.016 510.788 108.021C510.949 108.022 511.109 108.034 511.267 108.058C511.896 108.134 512.501 108.343 513.042 108.671C513.445 108.905 513.81 109.2 514.123 109.546C514.505 109.96 514.809 110.438 515.023 110.959C515.268 111.569 515.389 112.222 515.376 112.88C515.376 113.578 515.376 114.323 515.376 115.111C515.381 121.415 515.386 130.535 515.393 141.805C515.4 153.074 515.398 166.494 515.399 181.394C515.399 183.256 515.399 185.141 515.399 187.049V188.484C515.409 188.972 515.348 189.458 515.218 189.928C515.086 190.401 514.882 190.851 514.614 191.262C514.339 191.672 514.008 192.04 513.628 192.355C512.851 192.985 511.895 193.356 510.896 193.415C509.907 193.443 508.917 193.422 507.923 193.428H501.897C497.845 193.425 493.723 193.423 489.531 193.421L483.207 193.417H480.013C478.921 193.479 477.839 193.181 476.932 192.569C476.031 191.943 475.37 191.03 475.056 189.979C474.907 189.459 474.841 188.919 474.858 188.378V186.783C474.858 184.66 474.858 182.551 474.858 180.456C474.858 176.269 474.859 172.145 474.862 168.086C474.862 159.978 474.867 152.155 474.87 144.704C474.873 137.253 474.878 130.172 474.879 123.546C474.882 120.232 474.884 117.036 474.886 113.956C474.886 113.572 474.886 113.189 474.886 112.808C474.886 112.618 474.902 112.425 474.913 112.234C474.947 112.047 474.96 111.856 475.01 111.669C475.181 110.933 475.522 110.246 476.005 109.665C476.483 109.101 477.083 108.653 477.76 108.354C478.424 108.069 479.142 107.933 479.864 107.955L483.987 107.96H485.971H486.943C487.273 107.943 487.6 108.035 487.874 108.22C488.142 108.407 488.344 108.673 488.453 108.981C488.543 109.284 488.576 109.601 488.549 109.915C488.549 110.069 488.549 110.223 488.549 110.376C488.545 110.527 488.55 110.677 488.565 110.827C488.603 111.12 488.725 111.395 488.919 111.619C489.106 111.84 489.359 111.997 489.641 112.067C489.78 112.101 489.922 112.115 490.065 112.109H490.502H492.21L498.447 112.119L501.197 112.122C501.414 112.122 501.636 112.132 501.842 112.114C502.048 112.09 502.246 112.02 502.422 111.91C502.59 111.803 502.736 111.664 502.849 111.5C502.963 111.337 503.043 111.152 503.085 110.957C503.117 110.767 503.13 110.575 503.122 110.382C503.122 110.191 503.122 110.002 503.122 109.817C503.114 109.633 503.122 109.448 503.146 109.266C503.177 109.088 503.237 108.917 503.324 108.759C503.491 108.456 503.758 108.22 504.08 108.092C504.383 107.996 504.703 107.962 505.02 107.992C506.232 107.992 507.259 107.998 508.088 108L509.976 108.008C510.4 108.008 510.619 108.015 510.619 108.015C510.619 108.015 510.402 108.02 509.976 108.021C509.55 108.022 508.916 108.025 508.088 108.027L505.02 108.031C504.708 108.003 504.393 108.037 504.095 108.133C503.783 108.258 503.525 108.488 503.364 108.782C503.279 108.936 503.221 109.103 503.193 109.277C503.169 109.457 503.162 109.639 503.17 109.821V110.386C503.18 110.582 503.168 110.779 503.134 110.972C503.091 111.174 503.008 111.366 502.891 111.536C502.774 111.706 502.623 111.85 502.449 111.962C502.267 112.076 502.062 112.149 501.848 112.174C501.628 112.193 501.417 112.179 501.197 112.184H498.446H492.209H490.501C490.36 112.184 490.21 112.184 490.064 112.184C489.915 112.189 489.765 112.174 489.62 112.14C489.322 112.065 489.054 111.9 488.854 111.666C488.651 111.431 488.521 111.142 488.482 110.833C488.466 110.68 488.46 110.526 488.465 110.372V109.911C488.491 109.606 488.46 109.298 488.373 109.004C488.269 108.714 488.078 108.463 487.825 108.287C487.565 108.111 487.255 108.025 486.941 108.043H479.872C479.163 108.021 478.458 108.155 477.807 108.434C477.145 108.729 476.558 109.168 476.09 109.72C475.617 110.29 475.284 110.963 475.117 111.684C475.07 111.864 475.056 112.051 475.022 112.237C475.013 112.423 475 112.61 474.997 112.802C474.997 113.183 474.997 113.566 474.997 113.95C474.997 117.026 474.997 120.223 474.997 123.539C474.997 130.166 474.997 137.247 474.997 144.698C474.997 152.149 474.997 159.971 474.997 168.08C474.997 172.135 474.997 176.258 474.997 180.45C474.997 182.544 474.997 184.653 474.997 186.776C474.997 187.308 474.997 187.84 474.997 188.372C474.979 188.9 475.044 189.427 475.189 189.935C475.494 190.957 476.137 191.845 477.013 192.454C477.896 193.05 478.95 193.339 480.013 193.278H483.208L489.532 193.281L501.898 193.29C503.924 193.292 505.933 193.294 507.924 193.295C508.914 193.289 509.912 193.31 510.893 193.282C511.865 193.226 512.795 192.865 513.551 192.252C513.921 191.945 514.245 191.586 514.512 191.187C514.773 190.787 514.972 190.35 515.1 189.89C515.227 189.431 515.287 188.956 515.277 188.48C515.277 188.002 515.277 187.523 515.277 187.045C515.277 185.138 515.277 183.253 515.277 181.391C515.285 166.491 515.292 153.071 515.299 141.801C515.305 130.531 515.319 121.411 515.325 115.107C515.325 114.32 515.325 113.575 515.328 112.876C515.342 112.225 515.225 111.577 514.983 110.971C514.773 110.454 514.472 109.978 514.094 109.566C513.785 109.222 513.425 108.927 513.026 108.692C512.489 108.363 511.888 108.151 511.263 108.069C511.105 108.045 510.945 108.03 510.785 108.026C510.679 108.016 510.626 108.016 510.626 108.016Z" fill="#182E35" stroke="#EDF7FC" stroke-width="0.879299" stroke-miterlimit="10" stroke-linejoin="round"></path><path d="M433.117 108.647L430.091 108.652C430.028 108.652 429.964 108.652 429.9 108.652C429.656 108.632 429.41 108.666 429.18 108.751C428.873 108.874 428.617 109.101 428.458 109.391C428.376 109.543 428.319 109.707 428.29 109.876C428.266 110.054 428.259 110.234 428.267 110.413V110.971C428.277 111.165 428.265 111.358 428.231 111.549C428.189 111.748 428.108 111.937 427.992 112.104C427.876 112.272 427.728 112.414 427.556 112.524C427.376 112.638 427.173 112.71 426.962 112.736C426.821 112.748 426.687 112.747 426.551 112.746C426.474 112.746 426.399 112.746 426.32 112.746C425.459 112.746 424.553 112.746 423.609 112.746H417.459H415.342C415.194 112.751 415.046 112.737 414.902 112.703C414.609 112.63 414.345 112.467 414.148 112.237C413.947 112.005 413.819 111.719 413.779 111.415C413.765 111.264 413.76 111.111 413.764 110.959V110.506C413.789 110.205 413.758 109.902 413.672 109.612C413.571 109.325 413.382 109.078 413.132 108.905C412.877 108.731 412.571 108.646 412.262 108.663H405.279C404.581 108.643 403.886 108.775 403.244 109.05C402.59 109.341 402.01 109.776 401.547 110.322C401.081 110.884 400.752 111.547 400.588 112.259C400.542 112.436 400.528 112.621 400.496 112.802C400.487 112.957 400.479 113.112 400.474 113.267V187.955C400.461 188.452 400.524 188.948 400.66 189.425C400.962 190.433 401.596 191.308 402.459 191.909C403.331 192.498 404.372 192.784 405.422 192.724C406.476 192.724 407.526 192.724 408.573 192.724L414.81 192.728L427.006 192.736L432.948 192.739C433.293 192.739 433.639 192.739 433.983 192.739C434.62 192.739 435.249 192.744 435.873 192.727C436.832 192.67 437.749 192.314 438.495 191.71C438.859 191.407 439.177 191.053 439.441 190.659C439.699 190.265 439.895 189.833 440.021 189.38C440.147 188.927 440.207 188.459 440.197 187.99C440.197 187.516 440.197 187.045 440.197 186.576C440.197 184.694 440.197 182.835 440.197 180.998C440.206 166.304 440.212 153.069 440.219 141.955C440.225 130.841 440.239 121.848 440.245 115.63C440.245 114.853 440.245 114.12 440.245 113.431C440.259 112.788 440.143 112.149 439.905 111.552C439.698 111.042 439.401 110.573 439.029 110.167C438.724 109.827 438.368 109.536 437.974 109.305C437.444 108.98 436.852 108.771 436.236 108.691C436.08 108.666 435.923 108.652 435.765 108.648C435.659 108.641 435.606 108.635 435.606 108.635C435.606 108.635 435.394 108.64 434.969 108.641L433.117 108.647Z" fill="#F9FBFC"></path><path d="M435.646 108.604C435.646 108.604 435.7 108.604 435.806 108.609C435.964 108.611 436.122 108.623 436.279 108.646C436.899 108.72 437.495 108.927 438.029 109.251C438.426 109.481 438.785 109.772 439.093 110.112C439.47 110.52 439.771 110.992 439.981 111.506C440.225 112.107 440.346 112.751 440.335 113.4C440.335 114.089 440.335 114.822 440.335 115.599C440.338 121.819 440.344 130.811 440.35 141.924C440.357 153.037 440.354 166.273 440.357 180.966V187.96C440.366 188.441 440.306 188.92 440.177 189.383C440.047 189.849 439.847 190.293 439.582 190.698C439.311 191.102 438.984 191.465 438.609 191.776C437.843 192.398 436.9 192.763 435.915 192.821C435.286 192.84 434.657 192.837 434.028 192.835C433.68 192.835 433.332 192.835 432.981 192.835H427.043L414.848 192.828H408.611H405.462C404.384 192.888 403.316 192.593 402.422 191.988C401.534 191.371 400.882 190.471 400.573 189.435C400.426 188.922 400.36 188.389 400.378 187.856V186.283C400.378 184.188 400.378 182.109 400.378 180.043C400.378 175.913 400.379 171.847 400.381 167.845C400.381 159.848 400.387 152.133 400.39 144.785C400.393 137.438 400.396 130.454 400.399 123.918C400.399 120.651 400.401 117.499 400.405 114.462C400.405 114.085 400.405 113.708 400.405 113.331C400.405 113.142 400.421 112.953 400.431 112.765C400.464 112.579 400.478 112.391 400.526 112.209C400.695 111.482 401.031 110.804 401.507 110.23C401.98 109.674 402.571 109.233 403.238 108.937C403.892 108.657 404.6 108.523 405.311 108.545L409.382 108.54H411.339H412.298C412.624 108.523 412.947 108.613 413.217 108.798C413.48 108.982 413.68 109.244 413.787 109.547C413.875 109.845 413.907 110.156 413.882 110.466V110.92C413.876 111.068 413.881 111.217 413.897 111.364C413.933 111.653 414.054 111.925 414.245 112.145C414.431 112.363 414.679 112.518 414.957 112.589C415.096 112.622 415.238 112.635 415.381 112.629C415.522 112.629 415.668 112.629 415.811 112.629H417.494L423.644 112.637L426.358 112.642C426.433 112.642 426.509 112.642 426.585 112.642C426.721 112.646 426.857 112.643 426.992 112.634C427.195 112.61 427.39 112.542 427.563 112.433C427.729 112.328 427.873 112.191 427.985 112.029C428.097 111.868 428.176 111.685 428.217 111.493C428.25 111.306 428.262 111.117 428.253 110.927C428.253 110.739 428.253 110.553 428.253 110.369C428.246 110.187 428.255 110.006 428.278 109.825C428.308 109.65 428.368 109.481 428.454 109.326C428.618 109.026 428.882 108.794 429.199 108.668C429.435 108.582 429.686 108.548 429.935 108.569C430 108.569 430.063 108.569 430.125 108.569L433.152 108.576L435.013 108.585C435.433 108.585 435.65 108.591 435.65 108.591C435.65 108.591 435.438 108.596 435.013 108.598L433.152 108.603L430.125 108.608C430.064 108.608 430 108.608 429.935 108.608C429.691 108.589 429.445 108.622 429.215 108.706C428.907 108.83 428.652 109.057 428.493 109.348C428.411 109.499 428.353 109.663 428.324 109.832C428.302 110.01 428.295 110.19 428.302 110.369V110.927C428.312 111.121 428.3 111.314 428.266 111.505C428.225 111.704 428.143 111.893 428.028 112.06C427.912 112.227 427.764 112.37 427.592 112.479C427.412 112.594 427.209 112.666 426.998 112.691C426.861 112.701 426.723 112.704 426.586 112.7C426.511 112.7 426.433 112.7 426.357 112.7H423.643H417.494H415.38C415.232 112.706 415.085 112.692 414.941 112.658C414.647 112.585 414.383 112.422 414.186 112.192C413.986 111.96 413.858 111.675 413.819 111.371C413.803 111.219 413.798 111.067 413.803 110.915V110.46C413.828 110.159 413.796 109.856 413.711 109.567C413.609 109.28 413.42 109.033 413.171 108.86C412.915 108.686 412.609 108.602 412.3 108.619H405.317C404.619 108.599 403.924 108.731 403.282 109.006C402.629 109.297 402.049 109.73 401.586 110.275C401.119 110.836 400.79 111.5 400.627 112.211C400.58 112.39 400.566 112.574 400.534 112.755C400.525 112.94 400.511 113.124 400.509 113.312C400.509 113.689 400.509 114.066 400.509 114.443C400.509 117.476 400.509 120.628 400.509 123.899C400.509 130.435 400.509 137.417 400.509 144.766C400.509 152.116 400.509 159.829 400.509 167.826C400.509 171.824 400.509 175.89 400.509 180.024C400.509 182.09 400.509 184.169 400.509 186.264V187.837C400.492 188.358 400.556 188.878 400.699 189.379C401 190.386 401.634 191.261 402.497 191.862C403.369 192.451 404.411 192.738 405.462 192.678H408.611C410.704 192.68 412.783 192.682 414.848 192.683C418.976 192.685 423.041 192.688 427.043 192.69L432.981 192.695C433.327 192.695 433.673 192.695 434.018 192.695C434.654 192.695 435.283 192.7 435.908 192.683C436.867 192.626 437.784 192.271 438.53 191.665C438.894 191.363 439.212 191.009 439.475 190.616C439.734 190.223 439.93 189.791 440.055 189.336C440.181 188.884 440.24 188.416 440.231 187.947C440.231 187.473 440.231 187.002 440.231 186.533C440.231 184.653 440.231 182.793 440.231 180.955C440.24 166.261 440.248 153.027 440.253 141.913C440.258 130.799 440.273 121.805 440.28 115.588C440.28 114.81 440.28 114.077 440.28 113.389C440.294 112.746 440.178 112.106 439.94 111.509C439.732 110.999 439.436 110.53 439.064 110.124C438.759 109.784 438.403 109.493 438.01 109.261C437.48 108.937 436.888 108.727 436.272 108.647C436.115 108.623 435.958 108.609 435.799 108.605C435.7 108.61 435.646 108.604 435.646 108.604Z" fill="#182E35" stroke="#EDF7FC" stroke-width="0.879299" stroke-miterlimit="10" stroke-linejoin="round"></path><path d="M423.974 123.756C423.974 124.58 423.647 125.372 423.063 125.955C422.48 126.538 421.689 126.866 420.864 126.866C420.039 126.866 419.248 126.538 418.665 125.955C418.082 125.372 417.754 124.58 417.754 123.756C417.754 122.931 418.082 122.14 418.665 121.556C419.248 120.973 420.039 120.645 420.864 120.645C421.689 120.645 422.48 120.973 423.063 121.556C423.647 122.14 423.974 122.931 423.974 123.756Z" fill="#188EF8"></path><path d="M421.926 125.009H419.793V124.748C419.793 124.608 419.82 124.469 419.874 124.34C419.927 124.21 420.006 124.092 420.105 123.993C420.204 123.894 420.321 123.816 420.451 123.762C420.58 123.708 420.719 123.681 420.859 123.68C420.999 123.68 421.138 123.708 421.267 123.761C421.397 123.815 421.515 123.894 421.614 123.993C421.713 124.092 421.792 124.21 421.845 124.339C421.899 124.469 421.926 124.608 421.926 124.748V125.009Z" fill="white"></path><path d="M421.492 123.127C421.492 123.21 421.476 123.291 421.444 123.368C421.413 123.444 421.366 123.513 421.308 123.571C421.25 123.629 421.18 123.675 421.104 123.707C421.028 123.738 420.946 123.755 420.864 123.754C420.782 123.754 420.7 123.738 420.624 123.707C420.548 123.675 420.479 123.629 420.421 123.571C420.363 123.512 420.317 123.443 420.286 123.367C420.254 123.291 420.238 123.21 420.238 123.127C420.238 122.961 420.304 122.802 420.421 122.684C420.538 122.566 420.698 122.5 420.864 122.5C421.03 122.5 421.19 122.566 421.308 122.684C421.426 122.801 421.492 122.961 421.492 123.127Z" fill="white"></path><path d="M403.492 150.863L417.723 150.942L417.783 140.247L403.553 140.168L403.492 150.863Z" fill="#188EF8"></path><path d="M403.492 150.864L408.5 144.244L411.555 148.42L413.656 146.208L417.723 150.944L403.492 150.864Z" fill="#188EF8"></path><path d="M412.89 143.45C412.889 143.597 412.859 143.742 412.802 143.878C412.745 144.014 412.662 144.137 412.558 144.24C412.453 144.344 412.329 144.426 412.193 144.481C412.056 144.537 411.91 144.565 411.763 144.564C411.466 144.563 411.182 144.443 410.973 144.232C410.764 144.02 410.647 143.735 410.648 143.438C410.649 143.29 410.679 143.145 410.736 143.009C410.793 142.873 410.876 142.75 410.981 142.647C411.085 142.543 411.21 142.461 411.346 142.406C411.482 142.35 411.628 142.322 411.775 142.323C412.072 142.325 412.357 142.444 412.566 142.656C412.775 142.867 412.891 143.152 412.89 143.45Z" fill="#188EF8"></path><path d="M417.723 150.939L403.492 150.86L408.5 144.24L411.555 148.417L413.656 146.204L417.723 150.939Z" fill="#20BAFC"></path><path d="M411.77 144.565H411.763C411.467 144.563 411.184 144.444 410.976 144.235C410.767 144.025 410.649 143.742 410.648 143.446V143.438C410.65 143.142 410.769 142.859 410.979 142.65C411.189 142.441 411.473 142.324 411.769 142.323H411.775C412.071 142.325 412.354 142.444 412.563 142.653C412.772 142.863 412.889 143.147 412.89 143.442V143.45C412.888 143.746 412.77 144.029 412.56 144.238C412.35 144.447 412.066 144.565 411.77 144.565Z" fill="#20BAFC"></path><path d="M403.363 178.886L436.26 179.07L436.397 154.344L403.5 154.16L403.363 178.886Z" fill="#188EF8"></path><path d="M403.363 178.886L414.938 163.578L422.003 173.234L426.86 168.12L436.261 179.067L403.363 178.886Z" fill="#188EF8"></path><path d="M425.086 161.755C425.085 162.095 425.016 162.431 424.884 162.745C424.752 163.058 424.56 163.343 424.318 163.582C424.077 163.821 423.79 164.01 423.475 164.139C423.16 164.267 422.823 164.332 422.483 164.33C422.143 164.329 421.806 164.26 421.493 164.128C421.179 163.996 420.894 163.804 420.655 163.562C420.416 163.32 420.227 163.034 420.098 162.719C419.97 162.404 419.904 162.067 419.906 161.726C419.91 161.039 420.186 160.382 420.675 159.899C421.163 159.416 421.823 159.146 422.51 159.15C422.851 159.152 423.187 159.22 423.501 159.352C423.814 159.484 424.099 159.677 424.338 159.918C424.577 160.16 424.766 160.447 424.895 160.762C425.023 161.077 425.088 161.414 425.086 161.755Z" fill="#188EF8"></path><path d="M436.26 179.07L403.363 178.886L414.938 163.578L422.003 173.234L426.86 168.12L436.26 179.07Z" fill="#20BAFC"></path><path d="M422.499 164.33H422.483C421.799 164.327 421.144 164.053 420.661 163.568C420.178 163.083 419.907 162.427 419.906 161.743V161.727C419.91 161.042 420.185 160.387 420.67 159.904C421.155 159.421 421.812 159.15 422.497 159.15H422.51C423.194 159.154 423.849 159.428 424.332 159.913C424.814 160.398 425.085 161.054 425.086 161.738V161.755C425.082 162.439 424.808 163.094 424.324 163.576C423.839 164.059 423.183 164.33 422.499 164.33Z" fill="#20BAFC"></path><path d="M422.281 150.863L436.51 150.942L436.571 140.247L422.34 140.168L422.281 150.863Z" fill="#188EF8"></path><path d="M422.281 150.864L427.287 144.244L430.344 148.42L432.445 146.208L436.51 150.944L422.281 150.864Z" fill="#188EF8"></path><path d="M431.682 143.45C431.681 143.747 431.561 144.031 431.35 144.24C431.139 144.449 430.853 144.566 430.556 144.564C430.259 144.563 429.975 144.443 429.766 144.232C429.557 144.02 429.44 143.735 429.441 143.438C429.442 143.29 429.472 143.144 429.53 143.008C429.587 142.872 429.67 142.749 429.776 142.646C429.881 142.542 430.005 142.46 430.142 142.405C430.279 142.349 430.425 142.322 430.572 142.323C430.869 142.326 431.152 142.446 431.36 142.657C431.568 142.868 431.684 143.153 431.682 143.45Z" fill="#188EF8"></path><path d="M436.51 150.939L422.281 150.86L427.287 144.24L430.344 148.417L432.445 146.204L436.51 150.939Z" fill="#20BAFC"></path><path d="M430.562 144.565H430.556C430.26 144.563 429.977 144.444 429.768 144.235C429.56 144.025 429.442 143.742 429.441 143.446V143.438C429.443 143.142 429.562 142.858 429.772 142.649C429.982 142.44 430.266 142.323 430.562 142.323H430.569C430.865 142.325 431.148 142.444 431.356 142.653C431.565 142.863 431.682 143.147 431.682 143.442V143.45C431.681 143.746 431.562 144.029 431.352 144.238C431.143 144.447 430.859 144.565 430.562 144.565Z" fill="#20BAFC"></path><path d="M428.095 225.981L425.055 225.986C424.991 225.986 424.927 225.986 424.862 225.986C424.618 225.966 424.372 226 424.141 226.084C423.832 226.207 423.576 226.434 423.417 226.725C423.333 226.876 423.276 227.04 423.247 227.209C423.224 227.388 423.216 227.568 423.224 227.747V228.304C423.234 228.498 423.222 228.691 423.188 228.882C423.146 229.081 423.064 229.27 422.948 229.438C422.832 229.605 422.683 229.748 422.511 229.857C422.33 229.971 422.127 230.043 421.915 230.069C421.775 230.08 421.635 230.083 421.495 230.079C421.42 230.079 421.346 230.079 421.271 230.079H418.548H412.373H410.253C410.104 230.085 409.956 230.071 409.812 230.037C409.516 229.964 409.252 229.8 409.054 229.57C408.852 229.339 408.724 229.053 408.685 228.749C408.669 228.597 408.664 228.445 408.669 228.293V227.838C408.694 227.538 408.663 227.235 408.577 226.945C408.475 226.659 408.285 226.411 408.035 226.238C407.778 226.064 407.47 225.979 407.16 225.998H400.159C399.458 225.976 398.76 226.108 398.116 226.384C397.461 226.674 396.88 227.108 396.415 227.653C395.947 228.214 395.617 228.877 395.452 229.589C395.405 229.766 395.392 229.951 395.358 230.133C395.351 230.287 395.342 230.442 395.338 230.597V305.291C395.324 305.788 395.387 306.284 395.524 306.761C395.828 307.77 396.464 308.646 397.33 309.245C398.205 309.835 399.25 310.122 400.304 310.061H403.466L409.726 310.064L421.966 310.073L427.929 310.077C428.276 310.077 428.624 310.077 428.971 310.077C429.607 310.077 430.24 310.082 430.865 310.064C431.826 310.007 432.746 309.652 433.496 309.048C433.862 308.745 434.182 308.392 434.446 307.998C434.705 307.604 434.902 307.172 435.029 306.717C435.154 306.265 435.214 305.798 435.205 305.328C435.205 304.857 435.205 304.386 435.205 303.915C435.205 302.034 435.205 300.175 435.205 298.338C435.213 283.642 435.22 270.409 435.226 259.294C435.233 248.179 435.247 239.186 435.252 232.969C435.252 232.192 435.253 231.459 435.256 230.768C435.269 230.126 435.153 229.487 434.914 228.89C434.706 228.379 434.408 227.91 434.034 227.505C433.727 227.165 433.37 226.874 432.974 226.642C432.442 226.318 431.847 226.109 431.229 226.029C431.073 226.005 430.915 225.99 430.757 225.987C430.649 225.979 430.596 225.974 430.596 225.974C430.596 225.974 430.38 225.979 429.96 225.981H428.095Z" fill="#F9FBFC"></path><path d="M430.652 226.036C430.652 226.036 430.706 226.036 430.812 226.042C430.97 226.042 431.129 226.054 431.285 226.078C431.905 226.152 432.502 226.358 433.036 226.682C433.432 226.913 433.79 227.204 434.097 227.545C434.473 227.952 434.774 228.424 434.985 228.937C435.227 229.539 435.346 230.183 435.334 230.832C435.334 231.521 435.334 232.254 435.334 233.031C435.338 239.251 435.343 248.242 435.351 259.356C435.359 270.469 435.355 283.704 435.358 298.399V305.391C435.366 305.871 435.306 306.351 435.178 306.814C435.048 307.28 434.847 307.723 434.583 308.129C434.312 308.533 433.985 308.896 433.61 309.207C432.844 309.829 431.901 310.195 430.915 310.252C430.287 310.271 429.66 310.269 429.032 310.266C428.683 310.266 428.334 310.266 427.983 310.266H422.041L409.845 310.26L403.608 310.256H400.458C399.381 310.317 398.313 310.022 397.419 309.417C396.531 308.8 395.878 307.899 395.569 306.863C395.422 306.35 395.357 305.817 395.374 305.284C395.374 304.759 395.374 304.235 395.374 303.712C395.374 301.618 395.374 299.538 395.374 297.472C395.374 293.342 395.374 289.276 395.374 285.274C395.374 277.278 395.38 269.562 395.382 262.214C395.384 254.865 395.389 247.882 395.392 241.347C395.392 238.08 395.394 234.928 395.398 231.891C395.398 231.511 395.398 231.134 395.398 230.76C395.398 230.573 395.414 230.383 395.424 230.195C395.456 230.009 395.471 229.821 395.519 229.64C395.687 228.912 396.023 228.234 396.501 227.661C396.973 227.105 397.565 226.663 398.232 226.367C398.886 226.087 399.594 225.954 400.306 225.975L404.373 225.98H406.33C406.651 225.98 406.971 225.98 407.289 225.98C407.615 225.963 407.938 226.053 408.208 226.237C408.471 226.421 408.671 226.683 408.779 226.986C408.867 227.284 408.899 227.596 408.873 227.905C408.873 228.058 408.873 228.209 408.873 228.36C408.869 228.508 408.874 228.656 408.889 228.804C408.925 229.093 409.045 229.365 409.236 229.585C409.422 229.803 409.672 229.958 409.95 230.028C410.088 230.06 410.229 230.074 410.37 230.069C410.511 230.069 410.658 230.069 410.8 230.069C411.371 230.069 411.933 230.069 412.485 230.069L418.635 230.078L421.348 230.083C421.422 230.083 421.498 230.083 421.574 230.083C421.714 230.09 421.854 230.089 421.994 230.081C422.197 230.058 422.392 229.989 422.565 229.88C422.731 229.775 422.874 229.637 422.987 229.476C423.099 229.315 423.178 229.132 423.219 228.94C423.252 228.753 423.264 228.564 423.255 228.375C423.255 228.186 423.255 227.999 423.255 227.816C423.248 227.634 423.257 227.452 423.28 227.272C423.311 227.097 423.37 226.928 423.456 226.773C423.621 226.474 423.884 226.241 424.201 226.114C424.437 226.029 424.688 225.995 424.938 226.015C425.003 226.015 425.066 226.015 425.129 226.015L428.155 226.023L430.016 226.032C430.435 226.032 430.652 226.038 430.652 226.038C430.652 226.038 430.44 226.043 430.016 226.045L428.155 226.05L425.129 226.055C425.066 226.055 425.004 226.055 424.94 226.055C424.695 226.035 424.449 226.069 424.218 226.154C423.91 226.277 423.655 226.503 423.496 226.795C423.413 226.946 423.355 227.11 423.327 227.28C423.304 227.458 423.296 227.637 423.303 227.816C423.303 227.999 423.303 228.185 423.303 228.375C423.313 228.568 423.3 228.761 423.267 228.951C423.225 229.151 423.144 229.34 423.028 229.507C422.912 229.675 422.764 229.817 422.592 229.927C422.413 230.041 422.21 230.113 421.999 230.139C421.861 230.149 421.724 230.152 421.586 230.148C421.51 230.148 421.434 230.148 421.357 230.148C420.494 230.148 419.59 230.148 418.644 230.148H412.494H410.379C410.232 230.153 410.084 230.138 409.941 230.105C409.647 230.032 409.383 229.869 409.186 229.638C408.985 229.407 408.857 229.121 408.818 228.817C408.802 228.666 408.797 228.514 408.801 228.362V227.907C408.826 227.607 408.796 227.304 408.71 227.015C408.609 226.729 408.42 226.481 408.17 226.308C407.915 226.134 407.609 226.05 407.3 226.067H400.317C399.618 226.046 398.924 226.178 398.281 226.453C397.628 226.744 397.048 227.177 396.585 227.722C396.118 228.284 395.789 228.947 395.625 229.659C395.578 229.837 395.564 230.022 395.533 230.202C395.523 230.388 395.509 230.572 395.507 230.759V231.89C395.507 234.922 395.507 238.074 395.507 241.345C395.507 247.88 395.507 254.864 395.507 262.212V285.272C395.507 289.272 395.507 293.338 395.507 297.47C395.507 299.535 395.507 301.615 395.507 303.711V305.283C395.489 305.803 395.553 306.323 395.697 306.824C395.997 307.832 396.631 308.707 397.494 309.308C398.366 309.898 399.408 310.185 400.459 310.124H403.609L409.848 310.128L422.042 310.137L427.984 310.14C428.326 310.14 428.669 310.14 429.011 310.14C429.648 310.14 430.284 310.145 430.909 310.128C431.868 310.071 432.785 309.715 433.531 309.11C433.895 308.808 434.214 308.454 434.478 308.061C434.736 307.667 434.932 307.235 435.058 306.781C435.183 306.329 435.243 305.861 435.234 305.392V303.978C435.234 302.093 435.234 300.234 435.234 298.4C435.242 283.706 435.249 270.473 435.255 259.357C435.261 248.242 435.276 239.249 435.281 233.032C435.283 232.255 435.284 231.522 435.285 230.833C435.297 230.19 435.182 229.551 434.944 228.953C434.736 228.444 434.44 227.974 434.068 227.568C433.762 227.229 433.407 226.938 433.014 226.706C432.483 226.382 431.891 226.173 431.275 226.092C431.119 226.068 430.961 226.053 430.803 226.049C430.706 226.043 430.652 226.036 430.652 226.036Z" fill="#182E35" stroke="#EDF7FC" stroke-width="0.879299" stroke-miterlimit="10" stroke-linejoin="round"></path><path d="M405.906 273.403H415.406" stroke="#C6D1EA" stroke-width="0.879299" stroke-miterlimit="10"></path><path d="M405.906 266.278H424.921" stroke="#C6D1EA" stroke-width="0.879299" stroke-miterlimit="10"></path><path d="M405.906 269.84H420.151" stroke="#C6D1EA" stroke-width="0.879299" stroke-miterlimit="10"></path><path d="M405.906 276.372H424.921" stroke="#C6D1EA" stroke-width="0.879299" stroke-miterlimit="10"></path><path d="M405.906 279.934H420.151" stroke="#C6D1EA" stroke-width="0.879299" stroke-miterlimit="10"></path><path d="M404.711 261.647L426 261.765L426.087 245.765L404.8 245.646L404.711 261.647Z" fill="#188EF8"></path><path d="M404.711 261.644L412.204 251.738L416.775 257.988L419.918 254.678L426.002 261.761L404.711 261.644Z" fill="#188EF8"></path><path d="M418.766 250.56C418.765 250.78 418.72 250.998 418.635 251.201C418.55 251.404 418.425 251.588 418.269 251.743C418.112 251.898 417.927 252.021 417.723 252.104C417.519 252.187 417.3 252.229 417.08 252.228C416.86 252.226 416.642 252.182 416.439 252.097C416.237 252.011 416.053 251.887 415.898 251.73C415.743 251.574 415.621 251.388 415.538 251.185C415.455 250.981 415.413 250.763 415.414 250.542C415.415 250.322 415.459 250.104 415.545 249.901C415.63 249.698 415.754 249.514 415.911 249.359C416.068 249.204 416.253 249.082 416.457 248.999C416.661 248.916 416.88 248.874 417.1 248.876C417.32 248.877 417.538 248.921 417.74 249.006C417.943 249.092 418.127 249.216 418.282 249.373C418.437 249.529 418.559 249.714 418.642 249.918C418.725 250.122 418.767 250.34 418.766 250.56Z" fill="#188EF8"></path><path d="M426 261.765L404.711 261.647L412.204 251.741L416.775 257.99L419.918 254.681L426 261.765Z" fill="#20BAFC"></path><path d="M417.09 252.224H417.08C416.638 252.222 416.214 252.044 415.902 251.73C415.59 251.417 415.414 250.992 415.414 250.549V250.539C415.416 250.096 415.594 249.672 415.908 249.36C416.221 249.047 416.646 248.872 417.089 248.872H417.099C417.542 248.874 417.965 249.051 418.278 249.365C418.59 249.678 418.765 250.103 418.765 250.545V250.557C418.763 250.999 418.586 251.424 418.272 251.736C417.958 252.049 417.533 252.224 417.09 252.224Z" fill="#20BAFC"></path><path d="M291.215 44.6477C291.215 44.9404 291.099 45.2211 290.892 45.4282C290.685 45.6352 290.405 45.7516 290.112 45.7518C289.819 45.7516 289.538 45.6352 289.331 45.4282C289.124 45.2212 289.008 44.9405 289.008 44.6477C289.008 44.5027 289.036 44.359 289.092 44.225C289.147 44.091 289.228 43.9693 289.331 43.8668C289.434 43.7642 289.555 43.6829 289.689 43.6274C289.823 43.572 289.967 43.5435 290.112 43.5436C290.257 43.5436 290.4 43.5721 290.534 43.6276C290.668 43.6831 290.79 43.7644 290.892 43.867C290.995 43.9695 291.076 44.0913 291.132 44.2252C291.187 44.3592 291.215 44.5027 291.215 44.6477Z" fill="#EDF7FC"></path><path d="M341.005 106.623C340.985 106.53 340.976 106.435 340.98 106.34C340.973 106.128 340.966 105.854 340.956 105.514C340.944 104.753 340.93 103.688 340.91 102.333C340.891 99.5378 340.865 95.5511 340.833 90.6391C340.815 80.736 340.79 67.1104 340.762 52.0592C340.818 51.1442 340.755 50.2258 340.574 49.3271C340.356 48.4629 339.944 47.6599 339.368 46.9797C338.805 46.3144 338.102 45.7814 337.309 45.4184C336.517 45.0555 335.654 44.8715 334.782 44.8796C331.23 44.876 327.805 44.8704 324.539 44.8661L307.194 44.8152L295.501 44.7382L292.32 44.6922L291.494 44.6682C291.399 44.67 291.304 44.6619 291.211 44.6442C291.304 44.6244 291.399 44.6161 291.494 44.6195L292.32 44.5954L295.501 44.5495C298.297 44.5325 302.283 44.5049 307.194 44.4731L324.539 44.4201C327.805 44.4165 331.23 44.4116 334.782 44.406C335.723 44.3963 336.655 44.594 337.511 44.9849C338.368 45.3758 339.127 45.9504 339.736 46.6679C340.36 47.4033 340.806 48.2716 341.042 49.2063C341.234 50.1436 341.303 51.102 341.246 52.0571C341.219 67.1083 341.193 80.7338 341.176 90.637C341.144 95.549 341.118 99.535 341.099 102.331C341.079 103.685 341.064 104.75 341.053 105.512C341.043 105.852 341.036 106.126 341.029 106.338C341.031 106.433 341.023 106.529 341.005 106.623Z" fill="#EDF7FC" stroke="#C7D1EA" stroke-width="0.879299" stroke-miterlimit="10" stroke-linejoin="round"></path><path d="M342.114 106.625C342.114 106.918 341.998 107.199 341.791 107.406C341.584 107.613 341.303 107.729 341.01 107.729C340.718 107.729 340.437 107.613 340.23 107.406C340.023 107.199 339.906 106.918 339.906 106.625C339.906 106.48 339.935 106.337 339.99 106.203C340.046 106.069 340.127 105.947 340.229 105.844C340.332 105.742 340.454 105.661 340.588 105.605C340.722 105.55 340.865 105.521 341.01 105.521C341.155 105.521 341.299 105.55 341.433 105.605C341.567 105.661 341.688 105.742 341.791 105.845C341.893 105.947 341.975 106.069 342.03 106.203C342.085 106.337 342.114 106.48 342.114 106.625Z" fill="#EDF7FC"></path><path d="M246.628 228.504L263.993 303.513L257.552 375.478H198.024L196.008 337.578V228.162L208.259 223.143L237.441 225.651L246.628 228.504Z" fill="#F9FBFC"></path><path d="M324.583 274.387L337.28 214.079L337.943 204.112C337.943 204.112 340.756 181.749 340.753 179.565C340.748 177.043 341.964 176.435 342.894 176.496C344.342 176.592 345.368 178.377 345.438 180.542C345.463 181.29 345.368 193.109 345.368 193.109C346.054 191.992 346.819 190.926 347.657 189.917C349.405 187.705 353.509 186.441 357.72 186.576C361.932 186.711 363.099 187.121 363.123 188.759C363.112 189.069 363.033 189.372 362.89 189.648C362.747 189.923 362.545 190.163 362.298 190.35C361.521 190.999 360.532 191.34 359.52 191.308C352.772 191.183 350.956 194.79 350.956 194.79L350.869 196.095C350.869 196.095 354.968 193.165 358.237 194.398C358.719 194.58 359.161 194.853 359.539 195.203C360.438 195.218 361.319 195.457 362.102 195.899C362.886 196.341 363.546 196.971 364.023 197.733C364.501 198.539 364.761 199.456 364.777 200.393C364.793 201.33 364.564 202.255 364.115 203.077C363.676 203.855 362.868 204.578 361.994 204.402C361.541 204.264 361.13 204.015 360.799 203.677C360.612 203.511 360.411 203.362 360.199 203.232L359.444 206.851C359.444 206.851 357.315 214.89 356.784 218.494L353.869 278.161C353.772 280.126 353.286 282.051 352.437 283.826C351.589 285.601 350.395 287.188 348.926 288.497C347.457 289.805 345.743 290.808 343.882 291.447C342.022 292.085 340.053 292.347 338.09 292.216C335.974 292.075 333.913 291.481 332.047 290.474C330.18 289.468 328.552 288.072 327.271 286.382C325.99 284.691 325.088 282.746 324.624 280.676C324.16 278.607 324.146 276.462 324.583 274.387Z" fill="#FFBE9D"></path><path d="M339.218 213.266C340.457 213.606 341.726 212.701 342.395 211.602C343.064 210.504 343.342 209.215 343.929 208.073C345.687 204.659 349.937 203.029 351.531 199.535C351.753 199.048 351.873 198.378 351.444 198.057C351.048 197.76 350.488 197.995 350.053 198.235C346.343 200.289 342.634 202.343 338.926 204.396" fill="#FFBE9D"></path><path d="M339.218 213.266C340.457 213.606 341.726 212.701 342.395 211.602C343.064 210.504 343.342 209.215 343.929 208.073C345.687 204.659 349.937 203.029 351.531 199.535C351.753 199.048 351.873 198.378 351.444 198.057C351.048 197.76 350.488 197.995 350.053 198.235C346.343 200.289 342.634 202.343 338.926 204.396" stroke="#BE654D" stroke-width="0.439649" stroke-miterlimit="10" stroke-linejoin="round"></path><path d="M350.719 196.154C350.799 195.347 351.065 194.568 351.497 193.881C352.004 193.177 352.724 192.654 353.551 192.39C354.585 192.071 355.662 191.916 356.744 191.929C357.862 191.945 358.98 191.847 360.079 191.638C361.001 191.45 361.856 191.022 362.56 190.398C362.799 190.178 362.984 189.906 363.1 189.603C363.215 189.3 363.258 188.974 363.226 188.651C363.214 188.418 363.137 188.194 363.003 188.003C362.958 188.015 363.036 188.247 363.043 188.662C363.041 188.948 362.976 189.23 362.853 189.489C362.73 189.747 362.553 189.975 362.332 190.157C361.65 190.7 360.843 191.064 359.985 191.218C358.909 191.396 357.82 191.478 356.73 191.462C355.599 191.45 354.475 191.627 353.403 191.987C352.504 192.297 351.735 192.9 351.22 193.699C350.884 194.236 350.688 194.847 350.65 195.479C350.613 195.706 350.637 195.939 350.719 196.154Z" fill="#BE654D"></path><path d="M345.4 179.705C345.318 180.486 345.306 181.273 345.365 182.056C345.383 183.667 345.404 185.59 345.427 187.711C345.419 189.831 345.411 191.756 345.404 193.366C345.351 194.149 345.368 194.935 345.454 195.715C345.635 194.95 345.73 194.167 345.737 193.382C345.836 191.932 345.905 189.926 345.897 187.711C345.89 185.495 345.807 183.491 345.699 182.043C345.687 181.255 345.587 180.471 345.4 179.705Z" fill="#BE654D"></path><path d="M353.38 198.817C353.619 198.758 353.85 198.669 354.067 198.55C354.345 198.406 354.652 198.324 354.965 198.309C355.278 198.294 355.591 198.346 355.883 198.463C356.06 198.56 356.21 198.702 356.317 198.874C356.424 199.046 356.485 199.243 356.493 199.445C356.519 199.956 356.482 200.469 356.383 200.971C356.248 201.602 356.348 202.261 356.666 202.823C356.872 203.109 357.142 203.342 357.455 203.505C357.768 203.667 358.114 203.753 358.467 203.756C358.813 203.755 359.156 203.684 359.473 203.546C359.791 203.408 360.077 203.207 360.315 202.955C360.763 202.506 361.067 201.934 361.188 201.312C361.321 200.307 361.305 199.288 361.141 198.288C361.051 197.611 360.848 196.953 360.54 196.343C360.298 195.919 360.073 195.752 360.059 195.769C360.028 195.797 360.196 195.998 360.377 196.423C360.609 197.036 360.756 197.679 360.812 198.332C360.924 199.296 360.908 200.27 360.766 201.23C360.664 201.777 360.385 202.275 359.972 202.647C359.558 203.019 359.033 203.243 358.478 203.286C358.2 203.283 357.926 203.216 357.678 203.091C357.43 202.965 357.215 202.784 357.048 202.562C356.789 202.092 356.706 201.544 356.816 201.019C356.91 200.48 356.932 199.931 356.882 199.386C356.858 199.126 356.767 198.877 356.619 198.663C356.47 198.449 356.269 198.276 356.034 198.163C355.7 198.038 355.342 197.993 354.988 198.031C354.634 198.069 354.294 198.19 353.995 198.383C353.569 198.624 353.366 198.792 353.38 198.817Z" fill="#BE654D"></path><path d="M360.117 202.597C360.096 202.593 360.03 202.844 360.183 203.263C360.302 203.558 360.487 203.821 360.725 204.032C360.963 204.243 361.247 204.395 361.554 204.476C362.018 204.58 362.5 204.561 362.954 204.421C363.408 204.281 363.817 204.024 364.141 203.677C364.911 202.827 365.325 201.713 365.296 200.567C365.298 199.435 364.944 198.332 364.285 197.412C363.744 196.671 363.017 196.088 362.176 195.722C361.62 195.474 361.022 195.332 360.413 195.306C360.192 195.274 359.965 195.297 359.754 195.371C360.541 195.48 361.31 195.699 362.036 196.021C362.795 196.402 363.447 196.966 363.933 197.662C364.517 198.518 364.828 199.531 364.826 200.567C364.855 201.595 364.5 202.596 363.83 203.377C363.559 203.681 363.215 203.912 362.831 204.048C362.446 204.184 362.034 204.22 361.631 204.154C361.361 204.094 361.107 203.977 360.886 203.81C360.665 203.644 360.482 203.432 360.349 203.189C360.162 202.834 360.158 202.594 360.117 202.597Z" fill="#BE654D"></path><path d="M352.204 190.387C352.093 190.443 352.549 191.29 353.586 191.73C354.621 192.184 355.551 191.937 355.515 191.818C355.502 191.683 354.671 191.702 353.773 191.301C352.867 190.922 352.312 190.304 352.204 190.387Z" fill="#BE654D"></path><path d="M189.197 184.913C187.822 182.347 185.567 180.363 182.845 179.329C181.485 178.837 180.019 178.716 178.597 178.979C177.175 179.241 175.848 179.878 174.754 180.824C172.657 182.803 172.086 186.352 173.792 188.676C171.915 188.41 170.003 188.758 168.34 189.669C166.678 190.579 165.354 192.003 164.567 193.727C163.86 195.486 163.741 197.427 164.228 199.259C164.714 201.091 165.78 202.716 167.266 203.893C168.805 205 170.66 205.579 172.555 205.545C174.451 205.51 176.284 204.864 177.781 203.702C178.041 204.755 178.561 205.725 179.292 206.525C180.023 207.325 180.944 207.93 181.969 208.283C183.001 208.613 184.1 208.68 185.165 208.477C186.23 208.274 187.227 207.807 188.065 207.119C192.249 203.609 191.003 195.818 195.695 193.023" fill="#0C0042"></path><path d="M232.719 232.263C235.589 234.214 238.877 235.462 242.318 235.906C245.759 236.35 249.257 235.978 252.527 234.82C254.319 234.255 255.957 233.288 257.318 231.993C258.935 230.119 259.928 227.788 260.158 225.323C260.388 222.858 259.844 220.383 258.601 218.242C256.956 215.536 254.204 213.506 253.153 210.515C252.011 207.263 253.146 203.713 253.274 200.272C253.347 196.958 252.49 193.69 250.799 190.84C249.108 187.989 246.652 185.669 243.71 184.144L228.391 200.396L231.43 231.406L232.719 232.263Z" fill="#0C0042"></path><path d="M191.307 190.135C193.453 194.2 195.631 198.364 196.32 202.908C197.009 207.453 195.942 212.531 192.474 215.549C189.611 218.039 185.602 218.781 182.535 221.016C178.022 224.302 176.304 230.217 175.726 235.77C175.149 241.323 175.395 247.056 173.56 252.326C171.192 259.135 165.553 264.554 163.846 271.557C163.055 275.036 163.272 278.668 164.472 282.028C165.671 285.388 167.803 288.336 170.618 290.528C173.5 292.631 176.922 293.869 180.482 294.097C184.043 294.325 187.594 293.533 190.721 291.815C199.603 286.753 202.602 275.618 204.792 265.633C210.871 237.911 216.965 209.182 211.158 181.4L191.307 190.135Z" fill="#0C0042"></path><path d="M196.219 148.236C197.837 143.232 206.152 138.706 210.709 136.084C217.528 132.165 223.851 132.951 227.745 136.438C234.786 130.53 244.051 124.859 252.944 127.182C261.837 129.505 269.047 138.609 267.428 147.656C266.473 152.986 262.781 157.764 262.996 163.178C263.144 166.865 265.096 170.194 266.652 173.541C268.208 176.888 269.409 180.787 268.019 184.208C266.728 187.388 263.507 189.376 261.771 192.341C260.357 194.754 260.03 197.632 259.127 200.28C255.777 210.093 244.194 215.591 233.971 213.867C223.748 212.143 215.236 204.449 210.408 195.276C205.58 186.103 203.986 175.564 203.42 165.214" fill="#0C0042"></path><path d="M203.859 155.332L205.899 237.127C206.63 246.504 217.713 260.35 227.746 259.49C237.879 258.623 243.176 243.228 242.591 233.745C241.978 223.79 241.517 213.3 241.517 213.3C241.517 213.3 254.199 210.343 255.776 193.446C256.584 184.787 255.181 170.597 253.71 159.32C253.418 157.079 252.676 154.92 251.528 152.973C250.381 151.025 248.851 149.33 247.032 147.988C245.213 146.647 243.142 145.686 240.942 145.165C238.743 144.644 236.461 144.572 234.233 144.955" fill="#FFBE9D"></path><path d="M241.412 213.084C233.544 213.713 225.655 212.145 218.625 208.556C218.625 208.556 224.962 219.816 241.602 217.169L241.412 213.084Z" fill="#BE654D"></path><path d="M233.364 142.352C232.117 153.358 211.409 171.015 209.184 171.722C213.31 177.667 210.712 188.977 210.817 198.419C210.916 207.197 210.912 209.706 205.225 214.182C200.526 215.313 197.815 202.439 194.324 198.843C190.832 195.247 187.489 190.812 187.75 185.806C187.871 183.466 188.785 181.222 188.913 178.882C189.055 176.286 188.226 173.749 187.765 171.19C185.729 159.866 191.599 147.69 201.464 141.766C211.328 135.843 224.493 136.249 234.277 142.304" fill="#0C0042"></path><path d="M272.643 284.215L330.947 311.598C333.164 312.432 335.523 312.824 337.891 312.753C338.242 312.742 338.59 312.721 338.935 312.691C348.372 311.864 355.328 303.449 354.974 293.984L358.241 222.505H333.784L323.635 272.899L266.784 234.374C264.012 232.496 260.885 231.206 257.595 230.582L246.629 228.507L272.643 284.215Z" fill="#188EF8"></path><path d="M246.629 228.504C246.629 228.504 260.141 281.606 257.966 302.802C255.792 323.997 253.746 375.478 253.746 375.478H269.309C269.309 375.478 275.284 375.922 273.855 366.069C271.958 352.992 272.497 337.379 272.497 337.379C272.497 337.379 272.497 322.223 273.404 308.134C273.78 302.293 273.217 287.666 273.217 287.666L270.361 270.467L273.182 244.465L246.629 228.504Z" fill="#188EF8"></path><path d="M266.961 257.616C267.051 257.769 267.122 257.932 267.173 258.102C267.309 258.478 267.479 258.95 267.687 259.528C268.131 260.768 268.708 262.585 269.358 264.849C271.035 270.756 272.269 276.779 273.051 282.869C273.824 288.962 274.142 295.103 274.003 301.242C273.942 303.597 273.839 305.5 273.721 306.812C273.665 307.424 273.619 307.924 273.579 308.321C273.573 308.499 273.546 308.675 273.499 308.847C273.471 308.671 273.466 308.493 273.482 308.317C273.494 307.916 273.51 307.415 273.53 306.802C273.591 305.489 273.64 303.588 273.657 301.237C273.696 295.117 273.332 289.002 272.568 282.929C271.783 276.861 270.599 270.851 269.025 264.938C268.419 262.669 267.894 260.838 267.505 259.585C267.331 258.996 267.191 258.514 267.08 258.131C267.019 257.965 266.979 257.792 266.961 257.616Z" fill="#182E35"></path><path d="M323.144 272.566L323.105 272.54H323.155C323.151 272.547 323.149 272.556 323.144 272.566Z" fill="#CDCDCD"></path><path d="M324.289 282.826C324.148 282.401 324.01 281.96 323.887 281.502C324.025 281.942 324.161 282.383 324.289 282.826Z" fill="#102328"></path><path d="M205.507 221.239L234.573 256.295L242.091 224.844L246.628 228.504L251.179 248.244L233.649 263.802L221.434 266.197L209.747 261.975L201.355 225.972L205.507 221.239Z" fill="#F9FBFC"></path><path d="M165.904 277.243C165.904 277.243 190.699 328.301 189.068 343.518L182.976 375.478H205.934L215.386 375.422C215.645 361.825 214.059 324.856 213.23 299.312C212.401 273.768 202.312 224.571 202.312 224.571L193.848 228.255C181.726 228.856 165.436 236.106 162.207 254.035L165.904 277.243Z" fill="#188EF8"></path><path d="M162.594 252.007L151.638 309.154L150.378 322.483C149.745 329.16 151.715 335.824 155.877 341.084C160.039 346.345 166.071 349.795 172.715 350.716L242.662 363.063L256.918 340.726L186.105 317.201L195.429 275.52L162.594 252.007Z" fill="#188EF8"></path><path d="M215.244 360.105C215.231 359.539 215.217 358.974 215.203 358.395L215.49 358.447L215.414 360.099L215.244 360.105Z" fill="#CAC9C9"></path><path d="M215.492 358.447L215.205 358.395L193.27 354.485L187.262 353.396L187.268 353.366L215.502 358.268L215.492 358.447Z" fill="#182E35"></path><path d="M186.814 317.436L186.16 317.22C186.489 317.209 186.816 317.264 187.123 317.381C187.121 317.413 187.012 317.425 186.814 317.436Z" fill="#102328"></path><path d="M255.698 343.19L272.159 348.599L277.961 343.669L299.713 351.721L297.318 368.05L294.405 368.073L291.231 359.553L276.327 365.305L270.095 367.036L244.719 360.563L255.698 343.19Z" fill="#FFBE9D"></path><path d="M215.57 375.478V373.664C215.57 373.182 215.665 372.705 215.849 372.26C216.034 371.815 216.304 371.41 216.644 371.07C216.985 370.729 217.389 370.459 217.834 370.274C218.279 370.09 218.756 369.995 219.238 369.995H268.669L290.074 307.691C290.48 306.509 291.246 305.483 292.263 304.757C293.28 304.031 294.499 303.641 295.749 303.64H389.422C389.521 303.64 389.619 303.664 389.707 303.71C389.795 303.755 389.87 303.821 389.927 303.902C389.985 303.983 390.022 304.076 390.036 304.174C390.049 304.272 390.039 304.372 390.007 304.466L364.97 375.478H215.57Z" fill="#C6D1EA"></path><path d="M338.925 339.558C338.925 340.299 338.779 341.034 338.495 341.719C338.211 342.404 337.795 343.027 337.271 343.552C336.746 344.076 336.123 344.492 335.438 344.776C334.753 345.06 334.018 345.206 333.277 345.206C332.535 345.206 331.801 345.06 331.115 344.776C330.43 344.492 329.807 344.076 329.283 343.552C328.758 343.027 328.342 342.404 328.059 341.719C327.775 341.034 327.629 340.299 327.629 339.558C327.629 338.816 327.775 338.082 328.059 337.396C328.343 336.711 328.759 336.089 329.283 335.564C329.808 335.04 330.43 334.624 331.115 334.34C331.801 334.056 332.535 333.91 333.277 333.91C334.018 333.91 334.753 334.056 335.438 334.34C336.123 334.624 336.746 335.04 337.27 335.564C337.795 336.089 338.211 336.711 338.495 337.396C338.779 338.082 338.925 338.816 338.925 339.558Z" fill="white"></path><path d="M193.75 326.336C193.66 326.183 193.589 326.02 193.538 325.85C193.402 325.473 193.232 325.002 193.024 324.424C192.58 323.184 192.003 321.366 191.353 319.102C189.676 313.196 188.442 307.172 187.66 301.082C186.887 294.99 186.569 288.849 186.708 282.709C186.769 280.354 186.872 278.451 186.99 277.139C187.046 276.527 187.092 276.027 187.132 275.63C187.138 275.452 187.165 275.276 187.212 275.105C187.24 275.28 187.245 275.458 187.229 275.635C187.216 276.035 187.201 276.536 187.181 277.149C187.12 278.462 187.071 280.364 187.054 282.714C187.015 288.834 187.379 294.95 188.143 301.022C188.928 307.09 190.112 313.101 191.686 319.014C192.292 321.282 192.817 323.114 193.206 324.367C193.38 324.956 193.52 325.437 193.631 325.82C193.692 325.986 193.732 326.159 193.75 326.336Z" fill="#182E35"></path><path d="M492.849 364.909C455.896 376.503 419.521 354.053 449.709 327.632C476.004 304.5 473.256 285.625 489.675 276.493C511.54 264.344 531.961 292.511 531.981 292.511C558.473 327.122 532.6 352.456 492.849 364.909Z" fill="#F6FBFE"></path><path d="M104 69.2291C104 69.2291 104.102 81.2496 104.714 84.9184L119.796 84.2054C119.796 84.2054 118.471 72.388 118.982 69.2298L104 69.2291Z" fill="#0D3BFB"></path><path d="M107.023 80.7756H110.887" stroke="white" stroke-width="0.879299" stroke-miterlimit="10"></path><path d="M107.023 73.5326H116.685" stroke="white" stroke-width="0.879299" stroke-miterlimit="10"></path><path d="M107.023 77.1538H112.82" stroke="white" stroke-width="0.879299" stroke-miterlimit="10"></path><path d="M132.988 69.2291C132.988 69.2291 133.09 81.2496 133.702 84.9184L148.785 84.2054C148.785 84.2054 147.46 72.388 147.969 69.2298L132.988 69.2291Z" fill="#0D3BFB"></path><path d="M136 80.7756H139.863" stroke="white" stroke-width="0.879299" stroke-miterlimit="10"></path><path d="M136 73.5326H145.662" stroke="white" stroke-width="0.879299" stroke-miterlimit="10"></path><path d="M136 77.1538H141.797" stroke="white" stroke-width="0.879299" stroke-miterlimit="10"></path><path d="M161.969 69.2291C161.969 69.2291 162.071 81.2496 162.683 84.9184L177.765 84.2054C177.765 84.2054 176.44 72.388 176.95 69.2298L161.969 69.2291Z" fill="#20BAFC"></path><path d="M164.992 80.7756H168.856" stroke="white" stroke-width="0.879299" stroke-miterlimit="10"></path><path d="M164.992 73.5326H174.653" stroke="white" stroke-width="0.879299" stroke-miterlimit="10"></path><path d="M164.992 77.1538H170.789" stroke="white" stroke-width="0.879299" stroke-miterlimit="10"></path><path d="M104 97.0027C104 97.0027 104.102 109.023 104.714 112.692L119.796 111.979C119.796 111.979 118.471 100.162 118.982 97.0034L104 97.0027Z" fill="#20BAFC"></path><path d="M107.023 108.546H110.887" stroke="white" stroke-width="0.879299" stroke-miterlimit="10"></path><path d="M107.023 101.303H116.685" stroke="white" stroke-width="0.879299" stroke-miterlimit="10"></path><path d="M107.023 104.924H112.82" stroke="white" stroke-width="0.879299" stroke-miterlimit="10"></path><path d="M132.988 97.0027C132.988 97.0027 133.09 109.023 133.702 112.692L148.785 111.979C148.785 111.979 147.46 100.158 147.968 97.0027H132.988Z" fill="#20BAFC"></path><path d="M136 108.546H139.863" stroke="white" stroke-width="0.879299" stroke-miterlimit="10"></path><path d="M136 101.303H145.662" stroke="white" stroke-width="0.879299" stroke-miterlimit="10"></path><path d="M136 104.924H141.797" stroke="white" stroke-width="0.879299" stroke-miterlimit="10"></path><path d="M161.969 97.0027C161.969 97.0027 162.071 109.023 162.683 112.692L177.765 111.979C177.765 111.979 176.44 100.162 176.95 97.0034L161.969 97.0027Z" fill="#C6D1EA"></path><path d="M164.992 108.546H168.856" stroke="white" stroke-width="0.879299" stroke-miterlimit="10"></path><path d="M164.992 101.303H174.653" stroke="white" stroke-width="0.879299" stroke-miterlimit="10"></path><path d="M164.992 104.924H170.789" stroke="white" stroke-width="0.879299" stroke-miterlimit="10"></path><path d="M54.9142 285.502C59.8931 282.924 65.7623 282.596 71.3153 283.51C74.2909 284.002 77.3954 284.892 79.4104 287.118C81.4254 289.344 81.8237 293.292 79.4924 295.202C77.9995 296.221 76.1951 296.681 74.3963 296.502C70.0618 296.502 65.2469 295.694 61.7909 298.294C59.8111 299.782 58.499 302.254 56.1326 302.981C54.9505 303.252 53.7122 303.131 52.6048 302.636C51.4975 302.142 50.581 301.3 49.9939 300.239C48.8707 298.072 48.6192 295.557 49.291 293.21C49.5728 291.58 50.2267 290.036 51.202 288.699C52.1772 287.362 53.4475 286.268 54.9142 285.502Z" fill="#EDF7FC"></path><path d="M43.4835 263.442C46.5411 267.8 52.4689 266.359 55.1985 263.7C57.9281 261.041 59.1114 257.187 60.1657 253.52C62.579 245.12 65.0158 236.31 63.2233 227.747C62.7931 225.145 61.654 222.713 59.9314 220.718C59.0652 219.749 57.9611 219.023 56.7282 218.612C55.4954 218.201 54.1766 218.119 52.9024 218.375C49.915 219.159 48.0523 222.088 46.7051 224.876C42.7548 233.096 40.6857 242.092 40.6484 251.212C40.6484 255.453 41.1288 259.904 43.5186 263.407" fill="#EDF7FC"></path><path d="M35.1408 269.698C38.4445 265.762 39.0771 260.033 37.601 255.113C35.9264 250.222 32.9396 245.886 28.967 242.578C24.4523 238.563 19.2003 235.463 13.5031 233.452C11.296 232.561 8.92148 232.161 6.54438 232.28C5.35493 232.342 4.19878 232.694 3.17747 233.307C2.15616 233.92 1.30092 234.774 0.68685 235.795C-0.941543 238.958 0.61656 242.671 2.33867 245.752C5.30182 251.165 8.6862 256.335 12.4605 261.216C15.5064 265.141 18.9975 269.019 23.6366 270.788C28.2758 272.557 33.0907 272.357 35.5509 269.136" fill="#EDF7FC"></path><path d="M43.3417 329.164C43.5045 328.516 43.5948 327.852 43.6112 327.184L44.1383 321.783C44.3952 319.125 44.7862 316.482 45.3098 313.864C46.0181 310.668 46.9819 307.534 48.1918 304.492C49.3711 301.46 50.9766 298.612 52.9598 296.034C54.5741 293.932 56.6348 292.216 58.993 291.008C60.5955 290.22 62.3108 289.686 64.0774 289.426C64.7415 289.403 65.4013 289.308 66.0455 289.145C65.3799 289.068 64.7078 289.068 64.0422 289.145C62.2057 289.274 60.4076 289.734 58.7353 290.504C56.2501 291.679 54.0693 293.41 52.3623 295.565C50.2972 298.183 48.6312 301.093 47.4186 304.199C46.1738 307.271 45.2016 310.446 44.5132 313.688C43.9995 316.335 43.6474 319.011 43.4589 321.701C43.2831 324.044 43.2246 325.86 43.1894 327.137C43.1652 327.816 43.2163 328.496 43.3417 329.164Z" fill="#C1C7D7"></path><path d="M43.6561 324.981C43.6838 324.677 43.6838 324.372 43.6561 324.068C43.6561 323.376 43.6561 322.509 43.6561 321.443C43.6561 319.1 43.6561 315.867 43.7733 311.79C43.9841 303.648 44.687 294.885 46.0343 282.503C47.3229 270.881 49.045 257.362 50.8609 248.529C51.2475 246.526 51.6341 244.733 52.0324 243.152C52.4307 241.57 52.6884 240.211 52.9696 239.11C53.2507 238.009 53.4265 237.236 53.5905 236.556C53.6753 236.262 53.7302 235.959 53.7545 235.654C53.6059 235.927 53.4956 236.218 53.4265 236.521C53.2273 237.177 52.9813 238.009 52.665 239.028C52.3487 240.047 51.9855 241.476 51.5872 243.046C51.1889 244.616 50.7437 246.408 50.3103 248.412C48.0682 258.831 46.3828 269.362 45.2611 279.96C43.9021 292.343 43.293 303.613 43.2344 311.778C43.2344 315.867 43.2344 319.171 43.375 321.443C43.4452 322.509 43.4921 323.376 43.539 324.068C43.5362 324.376 43.5756 324.684 43.6561 324.981Z" fill="#C1C7D7"></path><path d="M43.7057 303.238C43.7771 302.326 43.7771 301.409 43.7057 300.497C43.6002 298.728 43.3542 296.186 42.8622 293.058C42.258 289.408 41.4524 285.794 40.4489 282.233C39.2601 277.852 37.7406 273.568 35.9034 269.417C32.7613 261.769 28.256 254.755 22.6069 248.716C21.6259 247.684 20.5813 246.713 19.4789 245.811C18.9986 245.401 18.5769 245.003 18.1434 244.64L16.9719 243.808C16.2328 243.252 15.4491 242.759 14.6289 242.332C17.2923 244.418 19.82 246.672 22.1968 249.08C27.6575 255.18 32.0355 262.169 35.142 269.745C36.9387 273.873 38.461 278.115 39.6991 282.444C40.8706 286.416 41.6673 290.082 42.2647 293.163C42.8622 296.244 43.1668 298.775 43.3659 300.52C43.4043 301.434 43.5179 302.343 43.7057 303.238Z" fill="#C1C7D7"></path><path d="M21.2344 338.302L23.4134 368.152H61.7685L63.9475 338.302H21.2344Z" fill="#0D3BFB"></path><path d="M68.5308 326.528H17.5352V338.29H68.5308V326.528Z" fill="#0D3BFB"></path><path d="M17.5195 367.015V370.272H19.9211H67.6717V367.015H17.5195Z" fill="#E4E9F2"></path><path d="M22.2766 375.649L19.9219 369.909H65.8449L63.1036 375.649H22.2766Z" fill="#0D3BFB"></path><path d="M63.2565 348.048C63.2027 348.148 63.14 348.242 63.069 348.33C62.9167 348.529 62.7293 348.775 62.5067 349.091C61.9561 349.782 61.2063 350.743 60.2691 351.95L60.1637 352.067L60.07 351.938L54.5639 344.393H54.8802L49.4679 352.043L49.3038 352.289L49.1164 352.055C47.1131 349.712 44.9458 347.111 42.7083 344.44H43.0714L42.72 344.885L36.9913 352.067L36.7922 352.313L36.6164 352.055L31.2158 344.393H31.5321L24.8662 351.973L24.7491 352.114L24.6671 351.961L22.5818 348.447L22.0429 347.51C21.9759 347.407 21.9209 347.297 21.8789 347.182C21.8789 347.182 21.9609 347.275 22.1015 347.474L22.699 348.376L24.878 351.809H24.6788L31.2275 344.124L31.3915 343.936L31.5438 344.147L36.9913 351.762H36.6282L42.3451 344.569L42.6966 344.124L42.884 343.89L43.0714 344.112L49.4561 351.762H49.1047L54.5639 344.147L54.7162 343.925L54.8802 344.147L60.2457 351.821H60.0583L62.4013 349.044L63.0222 348.318C63.086 348.217 63.1651 348.126 63.2565 348.048Z" fill="#F5F5F5" stroke="white" stroke-width="1.17151" stroke-miterlimit="10" stroke-linecap="square"></path><path d="M64.4279 338.102C64.4279 338.231 54.8215 338.337 42.9659 338.337C31.1103 338.337 21.5039 338.231 21.5039 338.102C21.5039 337.973 31.1103 337.856 42.9659 337.856C54.8215 337.856 64.4279 337.962 64.4279 338.102Z" fill="#F5F5F5"></path></svg> 